<?xml version="1.0" encoding="UTF-8" standalone="no"?>
<!-- Generator: Adobe Illustrator 16.0.0, SVG Export Plug-In . SVG Version: 6.00 Build 0)  -->

<svg
   xmlns:dc="http://purl.org/dc/elements/1.1/"
   xmlns:cc="http://creativecommons.org/ns#"
   xmlns:rdf="http://www.w3.org/1999/02/22-rdf-syntax-ns#"
   xmlns:svg="http://www.w3.org/2000/svg"
   xmlns="http://www.w3.org/2000/svg"
   xmlns:sodipodi="http://sodipodi.sourceforge.net/DTD/sodipodi-0.dtd"
   xmlns:inkscape="http://www.inkscape.org/namespaces/inkscape"
   version="1.1"
   id="Layer_1"
   x="0px"
   y="0px"
   width="63px"
   height="58.887px"
   viewBox="0 0 63 58.887"
   enable-background="new 0 0 63 58.887"
   xml:space="preserve"
   inkscape:version="0.91 r13725"
   sodipodi:docname="queen-w.svg"><metadata
     id="metadata9"><rdf:RDF><cc:Work
         rdf:about=""><dc:format>image/svg+xml</dc:format><dc:type
           rdf:resource="http://purl.org/dc/dcmitype/StillImage" /><dc:title></dc:title></cc:Work></rdf:RDF></metadata><defs
     id="defs7" /><sodipodi:namedview
     pagecolor="#ffffff"
     bordercolor="#666666"
     borderopacity="1"
     objecttolerance="10"
     gridtolerance="10"
     guidetolerance="10"
     inkscape:pageopacity="0"
     inkscape:pageshadow="2"
     inkscape:window-width="1920"
     inkscape:window-height="1026"
     id="namedview5"
     showgrid="false"
     inkscape:zoom="4.0076756"
     inkscape:cx="4.1774296"
     inkscape:cy="29.443501"
     inkscape:window-x="0"
     inkscape:window-y="0"
     inkscape:window-maximized="1"
     inkscape:current-layer="Layer_1" /><path
     d="M58.813,8.015c-2.313,0-4.188,1.875-4.188,4.188c0,1.617,0.927,3.005,2.27,3.702L46.872,32.328L46.88,9.833  c1.817-0.457,3.169-2.089,3.169-4.048c0-2.313-1.875-4.188-4.188-4.188s-4.188,1.875-4.188,4.188c0,1.925,1.306,3.529,3.075,4.019  L37.08,31.32L32.549,8.227c1.802-0.468,3.139-2.091,3.139-4.039C35.688,1.875,33.813,0,31.5,0s-4.188,1.875-4.188,4.188  c0,1.978,1.376,3.625,3.22,4.064L25.92,31.32L18.299,9.875c1.737-0.51,3.015-2.098,3.015-4c0-2.313-1.875-4.188-4.188-4.188  s-4.188,1.875-4.188,4.188c0,1.991,1.393,3.649,3.254,4.075L16.2,32.328L6.124,15.941c1.332-0.701,2.251-2.082,2.251-3.692  c0-2.313-1.875-4.188-4.188-4.188S0,9.937,0,12.25s1.875,4.188,4.188,4.188c0.043,0,0.083-0.011,0.126-0.013l7.664,26.944  c0.52,1.183,1.605,2.38,1.791,4.239c0.201,1.703-0.161,1.863-1.045,3.119c-0.75,1.291-1.219,2.318-1.187,3.287  s-0.376,2.281,4.034,3.453c7.715,1.922,24.402,1.891,32.116-0.078c3.683-1.266,3.817-1.734,3.777-3.359s-0.835-2.891-1.614-3.83  s-0.667-1.532-0.579-2.863s1.445-3.452,1.445-3.452l7.98-27.507c0.039,0.001,0.076,0.012,0.115,0.012  c2.313,0,4.188-1.875,4.188-4.188S61.125,8.015,58.813,8.015z M49.608,55.008c0,0-3.139-2.52-18.105-2.52s-18.11,2.52-18.11,2.52  s-0.116-0.98,0.504-2.232c0,0,4.066-2.016,17.604-2.016s17.604,2.016,17.604,2.016S49.722,53.908,49.608,55.008z M47.448,49.32  c0,0-2.308-2.95-16.37-2.95c-13.021,0-15.526,2.95-15.526,2.95s0.01-1.039-0.144-2.016c0,0,2.274-2.734,15.566-2.734  c14.375,0,16.617,2.734,16.617,2.734S47.422,48.136,47.448,49.32z M48.888,44.136c0,0-1.258-3.168-17.388-3.168  s-17.315,3.168-17.315,3.168s-0.437-1.075-0.792-1.656c0,0,1.945-3.312,18.107-3.312s18.036,3.312,18.036,3.312  S48.968,43.456,48.888,44.136z"
     id="path3"
     style="fill:rgb(13, 74, 135);fill-opacity:0.66666669" /></svg>