<svg xmlns="http://www.w3.org/2000/svg" viewBox="0 0 58.897 58.68" height="58.68" width="58.9"><path fill="#fff" d="M35.35 21.74v1.66H30.3v5.04h-1.57V23.4H23.7v-1.66h5.03V16.7h1.58v5.04z"/><path d="M45.43 46.4c-7.8 2.87-9.1.68-9.14-.86 0 0 2.43-.34 4.17-1.14 1.6-.74 1.5-1.36 1.5-1.9s.44-3.37-2.37-6.2c0 0-.6-1.03 2.34-3.52 2.94-2.5 5.64-11.1.67-15.96-4.96-4.87-5.67-2.68-10.62-7.45a5 5 0 0 0 2.5-4.33 5.04 5.04 0 0 0-10.07 0 5 5 0 0 0 2.52 4.33c-4.95 4.77-5.66 2.58-10.63 7.45-4.98 4.87-2.3 13.47.66 15.96 2.94 2.5 2.34 3.5 2.34 3.5-2.8 2.85-2.38 5.7-2.38 6.23s-.03 1.07 1.5 1.9c1.08.57 4.32 1.16 4.32 1.16-.04 1.54-1.78 3.66-9.58.8C5.36 43.47 0 50.05 0 50.05l4.25 8.62s3.7-6.62 11.97-3.14c8.25 3.5 13.23-2.26 13.23-2.26s4.76 5.76 13 2.27c8.27-3.48 12.2 3.13 12.2 3.13l4.25-8.79s-5.67-6.37-13.47-3.5zM26.15 5.04a3.37 3.37 0 1 1 6.74 0 3.37 3.37 0 0 1-6.75 0zm-6.93 27.38c-1.1-1-2.64-2.2-3.57-5.2-.92-3-1.06-7.48 3.84-11.04 4.9-3.55 5.43-2.15 9.16-6.24 0 0 .75.2 1.65 0 0 0 1.2 1.9 6.55 4.63 5.36 2.7 7.6 6.37 6.73 11.03-.86 4.65-2.22 5.1-3.26 6.3-1.04 1.2-1.38.85-2.23 3.16 0 0-7.54-4.95-17.3-.07 0 0-.47-1.57-1.58-2.58zm10.23 2.07c10.54 0 10.87 6.18 10.87 6.18s-4.3-1.5-10.87-1.5-10.8 1.5-10.8 1.5.26-6.2 10.8-6.2zM21.4 54.7c-4.67 0-4.26-2-9.36-2s-7.3 3.08-7.3 3.08L2.1 50.26c7.88-5.73 9.86-1.23 16.46-.87 6.6.34 5.85-3.68 5.85-3.68 2.2.27 4.33.22 4.33.22.6 6.97-2.66 8.78-7.33 8.78zm8.12-10.37c-8.53 0-10.8-1.73-10.8-1.73s2.08-1.72 10.8-1.72c8.7 0 10.8 1.72 10.8 1.72s-2.27 1.73-10.8 1.73zm24.7 11.45s-2.2-3.08-7.3-3.08-4.68 2-9.35 2-7.94-1.8-7.33-8.8c0 0 2.12.06 4.32-.2 0 0-.75 4 5.85 3.66 6.6-.35 8.6-4.85 16.48.87l-2.66 5.55z" fill="#fff"/></svg>