<?xml version="1.0" encoding="utf-8"?>
<!-- Generator: Adobe Illustrator 16.0.0, SVG Export Plug-In . SVG Version: 6.00 Build 0)  -->
<!DOCTYPE svg PUBLIC "-//W3C//DTD SVG 1.1//EN" "http://www.w3.org/Graphics/SVG/1.1/DTD/svg11.dtd">
<svg version="1.1" id="Layer_1" xmlns="http://www.w3.org/2000/svg" xmlns:xlink="http://www.w3.org/1999/xlink" x="0px" y="0px"
	 width="56.953px" height="57.384px" viewBox="0 0 56.953 57.384" enable-background="new 0 0 56.953 57.384" xml:space="preserve">
<g>
	<path d="M40.357,38.556c0.455,0.84,0.684,1.645,0.684,2.412v0.072v1.656c0,0.432-0.193,0.803-0.576,1.116
		c-0.385,0.312-0.877,0.587-1.477,0.828c-0.6,0.24-1.295,0.443-2.088,0.612c-0.791,0.167-1.596,0.299-2.412,0.396
		c0.096,0.672,0.313,1.212,0.648,1.62c0.336,0.407,0.707,0.708,1.116,0.9c0.407,0.191,0.815,0.312,1.224,0.36
		c0.407,0.047,0.731,0.072,0.973,0.072c0.047,0,0.563-0.025,1.547-0.072c0.984-0.048,2.027-0.264,3.133-0.648
		c0.72-0.336,1.596-0.637,2.628-0.9c1.031-0.264,1.812-0.396,2.34-0.396c3.264,0,6.048,1.055,8.353,3.168l0.504,0.432l-3.528,7.2
		l-0.792-0.72c-2.113-1.872-4.561-2.808-7.344-2.808c-0.385,0-1.021,0.108-1.908,0.324c-0.889,0.216-1.692,0.468-2.412,0.756
		c-0.625,0.288-1.236,0.492-1.836,0.612c-0.602,0.12-1.152,0.204-1.656,0.252c-0.504,0.047-0.925,0.072-1.26,0.072
		c-0.336,0-0.529,0-0.576,0c-1.057,0-2.304-0.349-3.744-1.044c-1.439-0.696-2.568-1.597-3.384-2.7
		c-0.385,0.576-0.876,1.104-1.476,1.584c-0.602,0.479-1.236,0.888-1.908,1.224c-0.673,0.335-1.332,0.6-1.98,0.792
		c-0.648,0.191-1.213,0.288-1.692,0.288c-0.144,0-0.781-0.036-1.908-0.108c-1.128-0.072-2.293-0.373-3.492-0.9
		c-0.769-0.288-1.596-0.552-2.484-0.792c-0.889-0.241-1.524-0.36-1.908-0.36c-2.88,0-5.328,0.936-7.344,2.808l-0.792,0.72L0,50.184
		l0.504-0.432c2.351-2.064,5.135-3.096,8.352-3.096c0.576,0,1.368,0.131,2.376,0.396c1.008,0.263,1.896,0.54,2.664,0.828
		c0.528,0.24,1.068,0.407,1.62,0.504c0.551,0.096,1.044,0.155,1.476,0.18c0.432,0.023,0.792,0.036,1.08,0.036
		c0.335,0,0.527,0,0.576,0c0.911,0,1.751-0.216,2.52-0.648c0.768-0.432,1.248-1.201,1.44-2.304c-0.817-0.097-1.62-0.229-2.412-0.396
		c-0.792-0.168-1.501-0.372-2.124-0.612c-0.625-0.241-1.128-0.517-1.512-0.828c-0.385-0.313-0.576-0.684-0.576-1.116v-1.728
		c0-1.535,0.6-2.927,1.8-4.176c0.096-0.144,0.18-0.24,0.252-0.288c0.072-0.047,0.155-0.119,0.252-0.216
		c0.047-0.191-0.024-0.563-0.216-1.116c-0.192-0.551-0.696-1.163-1.512-1.836c-2.688-2.304-4.032-5.544-4.032-9.72
		c0-1.392,0.252-2.64,0.756-3.744c0.504-1.104,1.127-2.076,1.872-2.916c0.744-0.839,1.536-1.548,2.376-2.124
		c0.839-0.576,1.595-1.032,2.268-1.368c3.024-1.536,5.063-2.903,6.12-4.104c-0.673-0.383-1.249-0.959-1.728-1.728
		c-0.48-0.767-0.721-1.631-0.721-2.592c0-1.392,0.492-2.58,1.477-3.564C25.931,0.493,27.12,0,28.512,0
		c1.392,0,2.579,0.493,3.563,1.476c0.984,0.984,1.477,2.172,1.477,3.564c0,0.961-0.24,1.8-0.721,2.52
		c-0.479,0.72-1.079,1.321-1.799,1.8c0.576,0.625,1.355,1.26,2.34,1.908c0.982,0.648,2.242,1.38,3.779,2.196
		c0.672,0.336,1.428,0.792,2.269,1.368c0.839,0.576,1.631,1.285,2.376,2.124c0.744,0.84,1.367,1.813,1.871,2.916
		c0.505,1.104,0.757,2.353,0.757,3.744c0,4.224-1.345,7.464-4.032,9.72c-0.816,0.673-1.32,1.296-1.512,1.872
		c-0.192,0.576-0.265,0.936-0.217,1.08C39.335,36.961,39.9,37.717,40.357,38.556z M36.037,41.22
		c1.847,0.408,2.939,0.804,3.275,1.188c0.047-0.335,0.084-0.612,0.108-0.828c0.023-0.216-0.013-0.563-0.108-1.044
		c-0.816-0.335-1.789-0.612-2.916-0.828c-1.128-0.216-2.232-0.371-3.313-0.468c-1.079-0.096-2.051-0.155-2.916-0.18
		c-0.863-0.023-1.416-0.036-1.655-0.036c-0.241,0-0.792,0.013-1.655,0.036c-0.865,0.025-1.85,0.084-2.953,0.18
		c-1.104,0.097-2.22,0.252-3.348,0.468c-1.128,0.216-2.1,0.493-2.916,0.828c-0.097,0.48-0.133,0.828-0.108,1.044
		c0.023,0.216,0.083,0.493,0.18,0.828c0.288-0.384,1.368-0.78,3.24-1.188c1.872-0.407,4.392-0.612,7.56-0.612
		S34.188,40.813,36.037,41.22z M33.876,35.748c1.656,0.504,2.988,1.285,3.996,2.34c-0.432-0.527-0.697-1.008-0.793-1.44
		s-0.096-0.839,0-1.224c-2.352-1.392-5.208-2.088-8.567-2.088c-3.409,0-6.313,0.696-8.712,2.088
		c0.335,0.817,0.119,1.705-0.648,2.664c0.959-1.055,2.268-1.836,3.924-2.34s3.467-0.756,5.436-0.756
		C30.431,34.992,32.22,35.244,33.876,35.748z M29.52,20.664v-4.752c0-0.768-0.385-1.152-1.151-1.152
		c-0.241,0-0.457,0.108-0.648,0.324c-0.192,0.216-0.288,0.493-0.288,0.828v4.752H22.68c-0.288,0-0.54,0.108-0.756,0.324
		c-0.216,0.216-0.324,0.468-0.324,0.756s0.108,0.529,0.324,0.72c0.216,0.192,0.468,0.288,0.756,0.288h4.752v4.824
		c0,0.288,0.096,0.529,0.288,0.72c0.191,0.192,0.407,0.288,0.648,0.288c0.767,0,1.151-0.335,1.151-1.008v-4.824h4.824
		c0.671,0,1.008-0.335,1.008-1.008c0-0.288-0.097-0.54-0.288-0.756c-0.191-0.216-0.432-0.324-0.72-0.324H29.52z M25.667,47.88
		c0.793,0.047,1.477,0.072,2.053,0.072V46.08c-0.576,0-1.177-0.012-1.8-0.036c-0.624-0.025-1.272-0.084-1.944-0.18
		c-0.049,0.383-0.133,0.72-0.252,1.008c-0.12,0.288-0.229,0.551-0.324,0.792C24.121,47.76,24.876,47.832,25.667,47.88z
		 M30.996,46.044c-0.6,0.024-1.188,0.036-1.764,0.036v1.872c0.576,0,1.271-0.025,2.088-0.072c0.816-0.048,1.56-0.12,2.232-0.216
		c-0.097-0.241-0.216-0.504-0.359-0.792c-0.145-0.288-0.241-0.625-0.289-1.008C32.232,45.959,31.595,46.019,30.996,46.044z"/>
</g>
<path d="M44.097,47.483c-7.804,2.87-9.57-0.291-9.609-1.835c0,0,3.535-0.367,5.045-1.252c1.511-0.886,1.508-1.354,1.508-1.886
	s0.432-3.381-2.377-6.222c0,0-0.603-1.017,2.342-3.507s5.637-11.094,0.666-15.964c-4.969-4.867-5.682-2.673-10.631-7.449
	c1.494-0.874,2.508-2.477,2.508-4.332C33.548,2.255,31.293,0,28.512,0s-5.036,2.255-5.036,5.036c0,1.855,1.014,3.458,2.508,4.332
	c-4.95,4.776-5.662,2.582-10.63,7.449c-4.971,4.87-2.279,13.474,0.666,15.964s2.341,3.507,2.341,3.507
	c-2.808,2.841-2.376,5.69-2.376,6.222s-0.003,1,1.507,1.886s5.045,1.252,5.045,1.252c-0.039,1.544-1.805,4.706-9.608,1.835
	S0.072,50.184,0.072,50.184l3.528,7.2c0,0,3.943-6.03,12.2-2.547s12.712-2.709,12.712-2.709s4.456,6.192,12.712,2.709
	c8.257-3.483,12.2,2.547,12.2,2.547l3.528-7.2C56.953,50.184,51.9,44.613,44.097,47.483z M22.596,20.666h4.917V15.75
	c0-0.552,0.448-1,1-1s1,0.448,1,1v4.917h4.917c0.552,0,1,0.448,1,1s-0.448,1-1,1h-4.917v4.917c0,0.552-0.448,1-1,1s-1-0.448-1-1
	v-4.917h-4.917c-0.552,0-1-0.448-1-1S22.043,20.666,22.596,20.666z M19.8,35.424c0,0,8.121-4.869,17.279,0
	c0,0-0.107,1.655,0.604,2.466c0.123,0.121,0.189,0.198,0.189,0.198c-0.073-0.055-0.129-0.129-0.189-0.198
	c-0.7-0.692-3.49-3.008-9.379-2.896c-6.039,0.114-8.551,2.387-9.092,2.962c-0.066,0.08-0.117,0.132-0.117,0.132
	s0.038-0.048,0.117-0.132C19.477,37.638,20.097,36.729,19.8,35.424z M27.72,47.952c-1.512,0.161-4.32-0.288-4.32-0.288
	c0.304-0.502,0.576-1.8,0.576-1.8c1.439,0.216,3.744,0.216,3.744,0.216V47.952z M17.712,42.408
	c-0.467-0.758-0.072-1.872-0.072-1.872c1.878-0.588,4.247-1.507,11.249-1.507s10.423,1.507,10.423,1.507
	c0.217,0.953,0,1.872,0,1.872s-2.092-1.7-10.383-1.799C20.639,40.511,17.712,42.408,17.712,42.408z M29.215,47.952V46.08
	c0,0,2.304,0,3.744-0.216c0,0,0.271,1.298,0.575,1.8C33.535,47.664,30.728,48.113,29.215,47.952z"/>
</svg>
