<?xml version="1.0" encoding="UTF-8" standalone="no"?>
<svg
   xmlns:dc="http://purl.org/dc/elements/1.1/"
   xmlns:cc="http://creativecommons.org/ns#"
   xmlns:rdf="http://www.w3.org/1999/02/22-rdf-syntax-ns#"
   xmlns:svg="http://www.w3.org/2000/svg"
   xmlns="http://www.w3.org/2000/svg"
   id="svg2"
   xml:space="preserve"
   enable-background="new 0 0 825.531 1264.314"
   viewBox="0 0 871.53137 1264.314"
   height="1264.314"
   width="871.53137"
   y="0px"
   x="0px"
   version="1.1"><metadata
     id="metadata611"><rdf:RDF><cc:Work
         rdf:about=""><dc:format>image/svg+xml</dc:format><dc:type
           rdf:resource="http://purl.org/dc/dcmitype/StillImage" /><dc:title></dc:title></cc:Work></rdf:RDF></metadata><defs
     id="defs609" /><g
     transform="translate(-1.2743826e-4,-1.4613692e-5)"
     id="blood_streaks"><path
       style="fill:#84000a"
       id="path5"
       d="m 243.132,623.324 c -25.417,-0.221 -53.381,23.566 -73.043,37.64 -14.693,10.517 -27.572,22.406 -41.087,34.333 -10.782,9.52 -25.737,13.459 -35.701,23.118 24.578,0.773 49.233,-23.348 70.58,-35.771 4.835,-2.825 9.697,-5.606 14.584,-8.34 2.495,-1.391 4.813,2.777 6.243,1.984 1.7,-0.94 10.968,-14.099 11.207,-15.607 -4.948,2.117 -10.475,6.138 -15.916,5.297 4.584,-12.734 32.475,-19.305 43.76,-23.887 1.707,-0.694 35.906,-18.633 19.373,-18.767 -8.215,-0.073 1.646,0.013 0,0 z" /><path
       style="fill:#84000a"
       id="path7"
       d="m 174.085,631.193 c -17.326,4.565 -37.141,16.459 -50.204,28.661 -6.778,6.331 -13.751,11.428 -22.016,15.621 -1.229,0.625 -15.446,10.069 -8.364,11.704 5.735,1.326 11.476,-9.545 15.33,-12.171 8.526,-5.813 16.744,-10.225 25.871,-15.016 8.924,-4.684 15.729,-11.663 25.039,-16.032 5.562,-2.613 11.139,-5.215 16.649,-7.933 3.193,-1.574 1.522,-5.843 -2.305,-4.834 -3.937,1.036 2.821,-0.744 0,0 z" /><path
       style="fill:#84000a"
       id="path9"
       d="m 482.676,757.235 c 0.129,-6.185 -2.617,1.379 -3.255,3.061 -1.426,3.761 -2.894,7.507 -4.35,11.257 -2.754,7.075 -5.479,14.163 -7.888,21.367 -4.624,13.844 -8.276,28.433 -7.652,43.129 3.681,-4.651 5.794,-11.052 8.144,-16.488 3.097,-7.167 5.297,-14.585 7.07,-22.179 1.838,-7.854 3.799,-15.679 5.597,-23.538 1.197,-5.248 2.861,-11.171 2.334,-16.609 0.014,-0.721 0.463,4.77 0,0 z" /><path
       style="fill:#84000a"
       id="path11"
       d="m 651.917,520.316 c -0.096,-0.184 -0.227,-0.318 -0.416,-0.377 -0.25,0.503 -0.358,0.764 -0.385,0.869 -0.188,0.466 -0.377,0.963 -0.573,1.462 -0.332,2.463 -1.616,3.618 -3.848,3.474 -1.104,-0.453 -2.72,-0.648 -3.999,-0.387 -1.077,0.105 -1.882,0.561 -1.994,1.635 -0.021,0.138 -0.029,0.286 -0.019,0.445 0.114,1.902 1.264,3.084 1.883,4.609 1.13,3.254 -2.83,3.258 -4.44,4.772 -2.837,2.669 -3.495,7.045 -3.656,10.696 -0.338,7.594 1.468,15.273 1.665,22.912 0.01,0.333 0.026,0.668 0.054,1.001 0.021,0.222 0.052,0.443 0.08,0.661 0.026,0.199 0.048,0.395 0.085,0.59 0.081,0.436 0.181,0.872 0.323,1.31 2.033,-3.827 3.741,-9.313 6.865,-12.323 6.953,-6.7 -1.767,-7.436 0.583,-15.121 1.302,-4.247 5.232,-18.802 10.782,-13.152 1.675,-3.455 -6.031,-10.607 -2.99,-13.076 -0.096,-0.184 0.301,-0.243 0,0 z" /><path
       style="fill:#84000a"
       id="path13"
       d="m 463.644,675.269 c -4.559,-3.398 -33.277,48.89 -27.037,54.244 1.809,-5.947 33.946,-49.102 27.037,-54.244 -1.932,-1.44 1.757,1.311 0,0 z" /><path
       style="fill:#84000a"
       id="path15"
       d="m 434.842,694.574 c -2.481,2.185 -5.976,10.742 0.731,10.002 8.199,-0.911 4.573,-14.688 -0.731,-10.002 -0.989,0.871 1.582,-1.399 0,0 z" /><path
       style="fill:#84000a"
       id="path17"
       d="m 425.277,747.507 c 4.337,-2.77 5.083,-6.831 5.821,-11.142 -3.822,1.898 -6.648,7.066 -5.821,11.142 z" /><path
       style="fill:#84000a"
       id="path19"
       d="m 63.941,733.528 c 5.087,-1.446 10.452,-2.375 14.151,-6.46 -0.237,-0.428 -0.471,-0.857 -0.707,-1.285 -4.48,2.581 -8.963,5.164 -13.444,7.745 z" /><path
       style="fill:#84000a"
       id="path21"
       d="m 430.87,688.425 c 0.475,3.411 4.198,-1.707 3.502,-4.441 -3.195,0.23 -3.82,2.125 -3.502,4.441 0.067,0.479 -0.318,-2.316 0,0 z" /><path
       style="fill:#84000a"
       id="path23"
       d="m 783.258,292.817 c -0.373,1.404 -2.441,3.668 -1.028,5.057 0.956,0.941 2.555,0.489 3.273,1.67 1.314,2.158 0.873,4.285 0.506,6.583 -1.209,7.541 2.915,17.504 8.536,22.217 1.587,-6.225 -0.063,-13.145 -2.803,-18.994 -1.311,-2.806 -5.045,-18.427 -8.484,-16.533 -0.607,2.275 0.407,-0.225 0,0 z" /></g><g
     transform="translate(-1.2743826e-4,-1.4613692e-5)"
     id="blood_pool"><path
       style="clip-rule:evenodd;fill:#84000a;fill-rule:evenodd"
       id="path26"
       d="m 374.444,1112.062 c 8.996,-18.362 15.338,-37.598 19.027,-57.707 -8.462,-2.672 -18.501,54.661 -19.027,57.707 8.838,-18.457 3.462,-20.152 0,0 z" /><path
       style="clip-rule:evenodd;fill:#84000a;fill-rule:evenodd"
       id="path28"
       d="m 494.417,231.734 c 8.74,3.831 19.25,-11.731 10.738,-17.423 -8.837,-5.898 -16.465,11.761 -10.738,17.423 5.693,2.496 -0.203,-0.2 0,0 z" /><path
       style="clip-rule:evenodd;fill:#84000a;fill-rule:evenodd"
       id="path30"
       d="m 571.662,965.318 c 5.815,-10.505 9.583,-46.633 5.427,-50.166 -3.358,5.073 -7.116,38.974 -5.427,50.166 z" /><path
       style="clip-rule:evenodd;fill:#84000a;fill-rule:evenodd"
       id="path32"
       d="m 588.13,824.315 c 3.28,-2.714 10.301,-52.2 8.443,-58.067 -3.406,4.926 -10.139,50.58 -8.443,58.067 z" /><path
       style="clip-rule:evenodd;fill:#84000a;fill-rule:evenodd"
       id="path34"
       d="m 750.101,717.694 c -0.004,-6.282 -3.406,-44.703 -11.033,-46.038 -1.419,4.679 2.681,43.345 11.033,46.038 -0.003,-2.555 -4.086,-1.319 0,0 z" /><path
       style="clip-rule:evenodd;fill:#84000a;fill-rule:evenodd"
       id="path36"
       d="m 538.353,656.71 c -5.06,14.655 -5.795,29.122 -7.242,44.147 4.109,-5.154 9.555,-37.803 7.242,-44.147 z" /><path
       style="clip-rule:evenodd;fill:#84000a;fill-rule:evenodd"
       id="path38"
       d="m 809.527,874.823 c -3.121,-14.424 -3.838,-29.506 -11.862,-42.583 0.399,15.174 6.354,28.814 11.862,42.583 z" /><path
       style="clip-rule:evenodd;fill:#84000a;fill-rule:evenodd"
       id="path40"
       d="m 636.272,575.591 c -4.513,6.826 -11.573,13.783 -1.346,20.266 0.449,-6.756 0.898,-13.512 1.346,-20.266 -2.22,3.362 3.585,5.992 0,0 z" /><path
       style="clip-rule:evenodd;fill:#84000a;fill-rule:evenodd"
       id="path42"
       d="m 711.236,370.248 c 2.57,-8.37 -2.387,-6.431 0,0 0.165,-0.539 0.102,0.269 0,0 z" /><path
       style="clip-rule:evenodd;fill:#84000a;fill-rule:evenodd"
       id="path44"
       d="m 248.299,506.513 c 7.83,-6.632 18.282,-9.815 24.697,-18.883 -4.015,-0.767 -23.653,14.047 -24.697,18.883 z" /><path
       style="clip-rule:evenodd;fill:#84000a;fill-rule:evenodd"
       id="path46"
       d="m 614.708,642.258 c 0.36,-4.47 1.84,-25.139 -3.307,-24.718 -4.401,0.353 0.743,24.793 3.307,24.718 0.164,-2.062 -0.504,0.015 0,0 z" /><path
       style="clip-rule:evenodd;fill:#84000a;fill-rule:evenodd"
       id="path48"
       d="m 767.385,602.535 c 15.36,-0.313 -2.96,-23.569 0,0 5.595,-0.114 -0.29,-2.308 0,0 z" /><path
       style="clip-rule:evenodd;fill:#84000a;fill-rule:evenodd"
       id="path50"
       d="m 752.022,531.638 c 5.023,-23.652 -20.741,9.592 0,0 0.786,-3.711 -1.851,0.854 0,0 z" /><path
       style="clip-rule:evenodd;fill:#84000a;fill-rule:evenodd"
       id="path52"
       d="m 401.872,261.987 c 7.357,22.937 10.106,-22.293 0,0" /><path
       style="clip-rule:evenodd;fill:#84000a;fill-rule:evenodd"
       id="path54"
       d="m 438.83,910.466 c 2.058,-8.407 8.341,-15.653 6.549,-25.115 -3.814,7.925 -7.31,15.936 -6.549,25.115 z" /><path
       style="clip-rule:evenodd;fill:#84000a;fill-rule:evenodd"
       id="path56"
       d="m 428.262,862.96 c 4.926,-6.799 8.491,-14.149 9.562,-22.575 -5.223,6.641 -8.45,14.162 -9.562,22.575 z" /><path
       style="clip-rule:evenodd;fill:#84000a;fill-rule:evenodd"
       id="path58"
       d="m 569.744,981.305 c 0.083,-0.828 -5.797,27.914 -2.334,30.736 4.403,-3.232 3.745,-30.524 2.334,-30.736 -0.582,5.864 0.456,0.07 0,0 z" /><path
       style="clip-rule:evenodd;fill:#84000a;fill-rule:evenodd"
       id="path60"
       d="m 452.605,976.855 c -3.433,4.188 -8.772,20.105 -7.993,26.011 15.217,-15.525 17.883,-24.194 7.993,-26.011 -3.432,4.187 0.43,0.098 0,0 z" /><path
       style="clip-rule:evenodd;fill:#84000a;fill-rule:evenodd"
       id="path62"
       d="m 407.441,447.943 c -8.116,20.227 21.62,-12.656 1.136,-2.919" /><path
       style="clip-rule:evenodd;fill:#84000a;fill-rule:evenodd"
       id="path64"
       d="m 349.058,1010.578 c 2.588,-20.892 -8.373,18.468 0,0 0.039,-0.309 -1.518,3.347 0,0 z" /><path
       style="clip-rule:evenodd;fill:#84000a;fill-rule:evenodd"
       id="path66"
       d="m 724.757,7.798 c 5.007,-20.483 -15.281,6.63 0,0 0.83,-3.407 -1.011,0.437 0,0 z" /><path
       style="clip-rule:evenodd;fill:#84000a;fill-rule:evenodd"
       id="path68"
       d="m 390.745,476.634 c 7.598,-28.257 -10.335,7.116 0,0 0.936,-3.48 -0.303,0.207 0,0 z" /><path
       style="clip-rule:evenodd;fill:#84000a;fill-rule:evenodd"
       id="path70"
       d="m 753.136,506.867 c 9.753,-12.883 -7.887,-15.458 0,0 1.145,-1.516 -0.931,-1.825 0,0 z" /><path
       style="clip-rule:evenodd;fill:#84000a;fill-rule:evenodd"
       id="path72"
       d="m 351.511,1176.152 c 5.118,-1.326 7.34,-17.37 7.939,-20.847 -3.693,6.563 -6.315,13.505 -7.939,20.847 3.115,-0.807 1.624,-7.342 0,0 z" /><path
       style="clip-rule:evenodd;fill:#84000a;fill-rule:evenodd"
       id="path74"
       d="m 582.671,871.329 c 1.011,-7.285 2.022,-14.569 3.032,-21.857 -7.936,-1.172 -8.951,6.114 -3.032,21.857 2.765,-4.959 0.681,-7.324 0,0 z" /><path
       style="clip-rule:evenodd;fill:#84000a;fill-rule:evenodd"
       id="path76"
       d="m 650.849,587.033 c 1.54,-1.491 2.067,-16.242 0.683,-19.201 -2.156,1.744 -2.636,15.132 -0.683,19.201 z" /><path
       style="clip-rule:evenodd;fill:#84000a;fill-rule:evenodd"
       id="path78"
       d="m 580.64,1264.314 c 0.509,-6.169 1.016,-12.342 1.523,-18.505 -3.04,2.169 -4.173,14.814 -2.531,18.455 0.338,0.016 0.671,0.034 1.008,0.05 z" /><path
       style="clip-rule:evenodd;fill:#84000a;fill-rule:evenodd"
       id="path80"
       d="m 440.602,819.483 c -5.167,-11.663 -11.13,4.423 0,0 -1.041,-2.352 -2.394,0.952 0,0 z" /><path
       style="clip-rule:evenodd;fill:#84000a;fill-rule:evenodd"
       id="path82"
       d="m 672.322,820.673 c 3.334,-15.54 1.307,-22.147 -6.073,-19.833 2.024,6.613 4.05,13.224 6.073,19.833 -1.634,-6.711 -3.661,-6.172 0,0 z" /><path
       style="clip-rule:evenodd;fill:#84000a;fill-rule:evenodd"
       id="path84"
       d="m 632.205,637.496 c 1.07,-4.699 2.774,-8.818 0.805,-13.521 -3.02,3.175 -3.663,11.104 -0.805,13.521 z" /><path
       style="clip-rule:evenodd;fill:#84000a;fill-rule:evenodd"
       id="path86"
       d="m 375.841,531.036 c -3.678,-0.62 -8.322,2.452 -10.506,6.947 4.547,-0.208 9.521,-3.5 10.506,-6.947 z" /><path
       style="clip-rule:evenodd;fill:#84000a;fill-rule:evenodd"
       id="path88"
       d="m 468.12,648.011 c -3.141,2.913 -7.717,4.589 -5.614,10.03 4.081,-1.599 6.355,-5.489 5.614,-10.03 z" /><path
       style="clip-rule:evenodd;fill:#84000a;fill-rule:evenodd"
       id="path90"
       d="m 774.347,481.858 c 5.007,13.349 9.13,-4.046 0,0 0.858,2.283 1.853,-0.821 0,0 z" /><path
       style="clip-rule:evenodd;fill:#84000a;fill-rule:evenodd"
       id="path92"
       d="m 742.555,612.146 c -2.16,14.584 0.235,20.633 7.19,18.151 2.496,-14.975 0.102,-21.027 -7.19,-18.151 1.966,6.177 0.632,-0.189 0,0 z" /><path
       style="clip-rule:evenodd;fill:#84000a;fill-rule:evenodd"
       id="path94"
       d="m 614.223,651.247 c -0.311,4.253 -2.332,8.583 0.5,12.802 2.715,-2.014 2.558,-7.546 -0.5,-12.802 z" /><path
       style="clip-rule:evenodd;fill:#84000a;fill-rule:evenodd"
       id="path96"
       d="m 592.644,205.472 c -4.616,-9.732 -10.526,4.123 0,0 -1.017,-2.141 -2.258,0.882 0,0 z" /><path
       style="clip-rule:evenodd;fill:#84000a;fill-rule:evenodd"
       id="path98"
       d="m 703.411,15.871 c 8.463,-5.722 -0.857,-12.189 0,0 2.068,-1.4 -0.188,-2.7 0,0 z" /><path
       style="clip-rule:evenodd;fill:#84000a;fill-rule:evenodd"
       id="path100"
       d="m 638.333,166.74 c -4.35,-9.705 -10.248,5.838 0,0 -0.809,-1.802 -1.922,1.095 0,0 z" /><path
       style="clip-rule:evenodd;fill:#84000a;fill-rule:evenodd"
       id="path102"
       d="m 396.515,533.675 c 3.273,-3.89 9.624,-2.461 12.706,-7.313 -3.965,-0.847 -10.675,3.034 -12.706,7.313 z" /><path
       style="clip-rule:evenodd;fill:#84000a;fill-rule:evenodd"
       id="path104"
       d="m 573.871,210.805 c -3.697,-9.84 -9.904,4.715 0,0 -0.753,-2.002 -1.939,0.923 0,0 z" /><path
       style="clip-rule:evenodd;fill:#84000a;fill-rule:evenodd"
       id="path106"
       d="m 757.113,340.638 c 12.668,-9.929 -10.371,-3.955 0,0 1.041,-0.816 -0.418,-0.158 0,0 z" /><path
       style="clip-rule:evenodd;fill:#84000a;fill-rule:evenodd"
       id="path108"
       d="m 371.753,619.301 c 3.961,-11.538 -14.642,4.688 0,0 0.891,-2.597 -1.213,0.387 0,0 z" /><path
       style="clip-rule:evenodd;fill:#84000a;fill-rule:evenodd"
       id="path110"
       d="m 580.739,1023.583 c 1.99,-39.662 -3.038,-0.155 0,0 0.26,-5.175 -0.539,-0.027 0,0 z" /><path
       style="clip-rule:evenodd;fill:#84000a;fill-rule:evenodd"
       id="path112"
       d="m 556.771,747.597 c -2.326,20.418 6.602,0.207 0,0 -0.274,2.435 0.558,0.018 0,0 z" /><g
       id="g114"><path
         style="fill:#84000a"
         id="path116"
         d="m 443.561,349.46 c 0.109,0.154 0.271,0.258 0.464,0.225 0.015,0.006 0.029,-10e-4 0.045,10e-4 0.064,0.026 0.114,0.055 0.183,0.08 -0.054,-0.019 -0.074,-0.049 -0.081,-0.081 0.203,-0.027 0.368,-0.192 0.438,-0.404 0.095,-0.015 0.06,0.101 -0.357,0.485 10.996,-10.114 -7.533,-3.748 -0.692,-0.306 z" /></g><path
       style="clip-rule:evenodd;fill:#84000a;fill-rule:evenodd"
       id="path118"
       d="m 752.463,641.917 c -3.557,18.517 6.934,-1.316 0,0 -0.364,1.897 0.3,-0.058 0,0 z" /><path
       style="clip-rule:evenodd;fill:#84000a;fill-rule:evenodd"
       id="path120"
       d="m 420.547,977.779 c -3.437,-10.485 -8.466,4.728 0,0 -0.628,-1.918 -1.54,0.861 0,0 z" /><path
       style="clip-rule:evenodd;fill:#84000a;fill-rule:evenodd"
       id="path122"
       d="m 329.954,538.56 c -4.281,-1.143 -6.779,0.208 -8.58,4.461 3.742,0.165 5.996,-1.871 8.58,-4.461 z" /><path
       style="clip-rule:evenodd;fill:#84000a;fill-rule:evenodd"
       id="path124"
       d="m 590.534,702.541 c 2.137,-3.305 1.906,-5.07 -0.966,-7.352 -2.56,3.49 -2.227,6.019 0.966,7.352 z" /><path
       style="clip-rule:evenodd;fill:#84000a;fill-rule:evenodd"
       id="path126"
       d="m 868.971,193.399 c -11.051,5.478 9.43,10.746 0,0 -2.499,1.238 2.018,2.302 0,0 z" /><path
       style="clip-rule:evenodd;fill:#84000a;fill-rule:evenodd"
       id="path128"
       d="m 541.94,639.193 c -1.367,2.889 -3.24,5.4 -0.792,8.392 2.872,-3.895 3.12,-5.911 0.792,-8.392 z" /><path
       style="clip-rule:evenodd;fill:#84000a;fill-rule:evenodd"
       id="path130"
       d="m 261.107,719.583 c -13.369,2.392 6.677,10.654 0,0 -2.569,0.458 1.521,2.426 0,0 z" /><path
       style="clip-rule:evenodd;fill:#84000a;fill-rule:evenodd"
       id="path132"
       d="m 566.433,1016.689 c -1.366,16.097 5.997,-0.473 0,0 -0.163,1.937 0.606,-0.046 0,0 z" /><path
       style="clip-rule:evenodd;fill:#84000a;fill-rule:evenodd"
       id="path134"
       d="m 427.865,819.859 c 13.762,-1.5 -8.938,-11.585 0,0 2.507,-0.273 -1.691,-2.192 0,0 z" /><path
       style="clip-rule:evenodd;fill:#84000a;fill-rule:evenodd"
       id="path136"
       d="m 725.356,601.422 c 9.504,-3.629 -5.646,-11.282 0,0 2.63,-1.005 -1.17,-2.336 0,0 z" /><path
       style="clip-rule:evenodd;fill:#84000a;fill-rule:evenodd"
       id="path138"
       d="m 580.67,738.889 c -0.042,2.561 -0.086,5.118 -0.126,7.677 3.574,-3.034 3.586,-4.399 0.126,-7.677 z" /><path
       style="clip-rule:evenodd;fill:#84000a;fill-rule:evenodd"
       id="path140"
       d="m 694.73,321.977 c 15.727,-7.523 -15.592,-2.724 0,0 2.205,-1.056 -0.479,-0.085 0,0 z" /><path
       style="clip-rule:evenodd;fill:#84000a;fill-rule:evenodd"
       id="path142"
       d="m 742.36,284.012 c -3.56,1.053 -3.633,1.195 -2.838,5.165 3.545,-0.1 3.985,-0.848 2.838,-5.165 z" /><path
       style="clip-rule:evenodd;fill:#84000a;fill-rule:evenodd"
       id="path144"
       d="m 1.124,911.408 c 13.427,0.165 -5.803,-12.864 0,0 2.912,0.036 -1.109,-2.459 0,0 z" /><path
       style="clip-rule:evenodd;fill:#84000a;fill-rule:evenodd"
       id="path146"
       d="m 433.497,1031.489 c 3.591,-0.136 4.385,-1.772 2.723,-6.237 -0.877,2 -1.748,4.001 -2.723,6.237 z" /><path
       style="clip-rule:evenodd;fill:#84000a;fill-rule:evenodd"
       id="path148"
       d="m 446.708,416.597 c -0.203,-0.164 -0.497,-0.212 -0.741,0.021 -0.409,0.39 -0.065,0.96 0.364,1.009 3.011,5.635 6.762,-3.911 0.377,-1.03 z" /><path
       style="clip-rule:evenodd;fill:#84000a;fill-rule:evenodd"
       id="path150"
       d="m 379.15,828.441 c 6.257,-4.285 -0.357,-8.254 0,0 1.722,-1.178 -0.091,-2.116 0,0 z" /><path
       style="clip-rule:evenodd;fill:#84000a;fill-rule:evenodd"
       id="path152"
       d="m 473.958,1149.039 c 10.782,-2.703 -7.525,-9.549 0,0 2.455,-0.617 -1.299,-1.653 0,0 z" /><path
       style="clip-rule:evenodd;fill:#84000a;fill-rule:evenodd"
       id="path154"
       d="m 400.174,683.22 c 6.087,-4.542 -0.519,-8.296 0,0 1.514,-1.129 -0.127,-2.018 0,0 z" /><path
       style="clip-rule:evenodd;fill:#84000a;fill-rule:evenodd"
       id="path156"
       d="m 421.133,490.097 c -3.848,-2.348 -5.714,-1.998 -7.499,1.648 2.248,-0.494 4.501,-0.988 7.499,-1.648 z" /><path
       style="clip-rule:evenodd;fill:#84000a;fill-rule:evenodd"
       id="path158"
       d="m 241.504,676.698 c 2.802,-1.125 3.925,-2.689 2.663,-5.651 -2.555,1.132 -4.287,2.363 -2.663,5.651 z" /><path
       style="clip-rule:evenodd;fill:#84000a;fill-rule:evenodd"
       id="path160"
       d="m 752.401,610.536 c 3.86,-12.853 -2.308,-2.221 0,0 0.691,-2.303 -2.907,-2.798 0,0 z" /><path
       style="clip-rule:evenodd;fill:#84000a;fill-rule:evenodd"
       id="path162"
       d="m 640.066,831.275 c 5.517,-3.22 -0.773,-8.505 0,0 1.37,-0.802 -0.169,-1.852 0,0 z" /><path
       style="clip-rule:evenodd;fill:#84000a;fill-rule:evenodd"
       id="path164"
       d="m 354.126,1030.502 c -3.022,1.826 -2.402,5.354 -3.025,8.326 5.411,-4.086 6.42,-6.862 3.025,-8.326 -3.022,1.827 0.34,0.192 0,0 z" /><path
       style="clip-rule:evenodd;fill:#84000a;fill-rule:evenodd"
       id="path166"
       d="m 447.753,880.329 c 4.119,-13.369 -4.219,-1.015 0,0 0.559,-1.809 -0.582,-0.14 0,0 z" /><path
       style="clip-rule:evenodd;fill:#84000a;fill-rule:evenodd"
       id="path168"
       d="m 662.557,1033.797 c 4.274,0.258 3.301,-9.77 0,0 3.166,0.192 0.565,-1.675 0,0 z" /><path
       style="clip-rule:evenodd;fill:#84000a;fill-rule:evenodd"
       id="path170"
       d="m 676.813,840.302 c 1.928,-2.425 0.207,-4.072 -1.103,-5.893 -1.501,2.824 -1.29,3.967 1.103,5.893 z" /><path
       style="clip-rule:evenodd;fill:#84000a;fill-rule:evenodd"
       id="path172"
       d="m 566.16,871.328 c 3.409,-0.003 3.778,-0.708 2.706,-4.729 -3.412,0.293 -1.516,3.221 -2.706,4.729 z" /><path
       style="clip-rule:evenodd;fill:#84000a;fill-rule:evenodd"
       id="path174"
       d="m 447.539,401.494 c 2.795,-1.04 3.081,-1.817 1.771,-4.819 -2.885,1.175 -3.012,1.516 -1.771,4.819 z" /><path
       style="clip-rule:evenodd;fill:#84000a;fill-rule:evenodd"
       id="path176"
       d="m 675.913,623.739 c 6.402,-8.286 -5.957,-1.338 0,0 0.603,-0.781 -0.315,-0.072 0,0 z" /><path
       style="clip-rule:evenodd;fill:#84000a;fill-rule:evenodd"
       id="path178"
       d="m 767.862,236.016 c 0.853,-1.655 1.701,-3.312 2.553,-4.968 -4.538,2.369 -5.389,4.025 -2.553,4.968 0.853,-1.655 -0.411,-0.207 0,0 z" /><path
       style="clip-rule:evenodd;fill:#84000a;fill-rule:evenodd"
       id="path180"
       d="m 411.021,430.391 c -2.142,-0.035 -3.979,-0.069 -6.251,-0.108 2.307,3.199 4.065,3.182 6.251,0.108 z" /><path
       style="clip-rule:evenodd;fill:#84000a;fill-rule:evenodd"
       id="path182"
       d="m 623.788,905.771 c 2.228,-9.086 -4.325,-1.177 0,0 0.327,-1.328 -0.696,-0.191 0,0 z" /><path
       style="clip-rule:evenodd;fill:#84000a;fill-rule:evenodd"
       id="path184"
       d="m 462.235,606.007 c 2.791,5.348 6.065,-1.924 0,0 0.637,1.222 1.352,-0.429 0,0 z" /><path
       style="clip-rule:evenodd;fill:#84000a;fill-rule:evenodd"
       id="path186"
       d="m 622.585,712.907 c 4.162,-4.523 -1.229,-7.413 0,0 1.235,-1.341 -0.346,-2.088 0,0 z" /><g
       id="g188"><path
         style="fill:#84000a"
         id="path190"
         d="m 393.472,1054.355 c -8.463,-2.672 -18.502,54.661 -19.027,57.707 7.628,-15.929 13.645,-32.359 17.405,-49.497 0.27,-2.101 1.313,-8.307 1.622,-8.21 z" /><path
         style="fill:#84000a"
         id="path192"
         d="m 579.632,1264.264 c 0.338,0.016 0.671,0.034 1.008,0.05 0.509,-6.169 1.016,-12.342 1.523,-18.505 -3.04,2.169 -4.173,14.815 -2.531,18.455 z" /><path
         style="fill:#84000a"
         id="path194"
         d="m 329.954,538.56 c -4.281,-1.143 -6.779,0.208 -8.58,4.461 3.742,0.165 5.996,-1.871 8.58,-4.461 z" /><path
         style="fill:#84000a"
         id="path196"
         d="m 436.22,1025.251 c -0.877,2.001 -1.748,4.002 -2.723,6.237 3.591,-0.135 4.385,-1.772 2.723,-6.237 z" /><path
         style="fill:#84000a"
         id="path198"
         d="m 428.262,862.96 c 4.926,-6.799 8.491,-14.149 9.562,-22.575 -5.223,6.641 -8.45,14.162 -9.562,22.575 z" /><path
         style="fill:#84000a"
         id="path200"
         d="m 272.996,487.63 c -4.015,-0.768 -23.653,14.047 -24.697,18.883 7.83,-6.632 18.282,-9.815 24.697,-18.883 z" /><g
         id="g202"><path
           style="fill:#84000a"
           id="path204"
           d="m 186.285,558.727 c -0.563,0.171 -1.184,0.39 -1.875,0.679 0.148,-0.062 0.276,-0.105 0.396,-0.135 -0.153,0.08 -0.244,0.223 -0.264,0.389 -0.046,-0.076 -0.09,-0.154 -0.132,-0.254 0.043,0.1 0.09,0.184 0.134,0.28 -0.015,0.175 0.036,0.357 0.149,0.477 0.069,0.073 0.14,0.147 0.214,0.219 0.229,0.394 0.466,0.731 0.712,1.002 0.038,0.376 0.108,0.772 0.235,1.21 -0.024,0.07 -0.039,0.141 -0.081,0.217 -0.352,0.666 0.653,1.278 1.006,0.605 0.014,-0.025 0.021,-0.058 0.04,-0.088 0.472,-0.305 0.892,-0.603 1.259,-0.889 1.941,-0.24 3.4,-2.688 2.224,-3.712 -0.483,-1.261 -2.821,-1.423 -4.017,0 z" /></g><g
         id="g206"><path
           style="fill:#84000a"
           id="path208"
           d="m 574.411,833.449 c -0.06,-0.058 0.097,-0.159 0.035,-0.188 -0.01,-0.024 0.199,-0.107 0.19,-0.135 0.007,0.021 0.015,0.046 0.02,0.066 -0.003,-0.011 -0.249,0.049 -0.268,0.043 0.003,-0.028 -0.1,-0.014 -0.079,-0.012 -0.286,-0.065 0.029,-0.017 -0.238,-0.055 -0.059,-0.015 0.427,0.03 0.428,0.026 -10e-4,0.008 -0.015,0.014 -0.015,0.02 -6.944,-0.906 -8.273,5.747 -4.307,19.957 1.058,-0.672 1.313,-1.495 1.562,-2.17 0.972,-1.635 1.625,-3.91 2.201,-6.306 1.413,-4.018 2.223,-8.378 1.006,-10.439 -0.106,-0.29 -0.311,-0.574 -0.535,-0.807 z" /></g><path
         style="fill:#84000a"
         id="path210"
         d="m 418.973,972.97 c -7.036,6.879 3.143,9.591 0,0 0.474,1.447 -1.091,1.065 0,0 z" /><path
         style="fill:#84000a"
         id="path212"
         d="m 473.958,1149.039 c 2.455,-0.616 3.223,-2.105 2.336,-4.193 -3.113,-1.571 -3.893,-0.173 -2.336,4.193 z" /><path
         style="fill:#84000a"
         id="path214"
         d="m 117.006,632.859 c -0.166,-0.511 -0.761,-0.596 -1.077,-0.169 -0.131,0.178 -0.185,0.358 -0.224,0.549 -0.237,0.314 -0.437,0.603 -0.603,0.865 -0.083,0.082 -0.165,0.159 -0.252,0.248 -0.077,0.048 -0.145,0.094 -0.205,0.138 -0.595,0.448 -1.104,1.028 -1.034,1.822 0.034,0.393 0.318,0.648 0.72,0.587 0.384,-0.062 0.653,-0.254 0.934,-0.508 0.611,-0.181 1.365,-0.746 1.725,-1.472 0.591,-0.841 0.667,-1.896 0.027,-1.969 -0.008,-0.029 -0.002,-0.058 -0.011,-0.091 z" /><path
         style="fill:#84000a"
         id="path216"
         d="m 449.431,874.908 c -0.559,1.807 -0.637,-0.185 0,0 -4.103,-1.192 -4.061,13.129 0,0 z" /><path
         style="fill:#84000a"
         id="path218"
         d="m 351.229,1038.278 c 0.583,-2.354 1.13,-1.857 -0.128,0.551 7.404,-14.219 1.786,-7.397 0.128,-0.551 z" /><path
         style="fill:#84000a"
         id="path220"
         d="m 355.38,1170.762 c 0.159,-1.123 0.083,-0.579 0,0 1.698,-5.061 3.057,-10.211 4.07,-15.454 -3.693,6.563 -6.315,13.505 -7.939,20.847 3.115,-0.807 3.519,-2.94 3.869,-5.39 z" /><path
         style="fill:#84000a"
         id="path222"
         d="m 1.124,911.408 c 2.913,0.036 3.56,-1.962 3.759,-4.139 -2.612,-2.396 -3.864,-1.017 -3.759,4.139 z" /><path
         style="fill:#84000a"
         id="path224"
         d="m 496.479,771.995 c 0.75,-0.261 1.767,-1.528 2.563,-1.944 0.89,-0.472 1.363,-1.59 0.615,-2.421 0.126,-1.819 -2.114,-3.308 -3.448,-1.694 -2.419,0.44 -2.025,0.964 -0.83,2.976 0.323,0.543 -1.122,3.85 1.1,3.083 0.266,-0.094 -0.773,0.264 0,0 z" /><g
         id="g226"><path
           style="fill:#84000a"
           id="path228"
           d="m 220.082,443.726 c -0.367,0.369 -0.668,0.789 -0.975,1.208 -0.006,0.005 -0.012,0.011 -0.02,0.017 -0.041,0.027 -0.088,0.059 -0.128,0.088 -2.001,0.252 -3.717,3.217 -2.095,3.927 0.684,0.805 2.425,0.792 3.448,-0.376 0.146,0.051 0.309,0.061 0.462,0 0.433,-0.174 0.779,-0.341 1.055,-0.711 0.046,-0.021 0.091,-0.037 0.137,-0.061 -0.046,0.023 -0.086,0.034 -0.129,0.053 0.015,-0.018 0.029,-0.03 0.042,-0.049 0.023,-0.033 0.031,-0.069 0.045,-0.105 0.014,0.035 0.029,0.063 0.043,0.102 -0.014,-0.039 -0.029,-0.066 -0.043,-0.103 0.105,-0.276 -0.054,-0.593 -0.301,-0.731 -0.036,-0.078 -0.072,-0.158 -0.109,-0.232 0.065,-0.896 -0.124,-1.849 -0.37,-2.645 -0.036,-0.113 -0.113,-0.207 -0.204,-0.282 -0.19,-0.266 -0.563,-0.399 -0.858,-0.1 z" /></g><path
         style="fill:#84000a"
         id="path230"
         d="m 709.412,665.946 c 0.155,2.046 -0.444,0.025 0,0 -3.332,0.18 1.162,15.273 0,0 z" /><path
         style="fill:#84000a"
         id="path232"
         d="m 629.655,585.621 c -5.662,8.682 29.155,27.661 6.617,-10.029 -2.093,3.164 -4.16,6.296 -6.225,9.431 -0.114,0.176 -0.252,0.389 -0.392,0.598 z" /><path
         style="fill:#84000a"
         id="path234"
         d="m 646.146,602.144 c 0.005,-0.009 0.013,-0.017 0.021,-0.03 -0.009,0.013 -0.013,0.017 -0.021,0.03 -0.107,0.167 -0.021,0.437 0.193,0.744 -0.226,0.797 0.098,0.97 0.654,0.718 2.105,1.897 6.938,3.593 3.07,-6.537 -1.631,2.073 -2.873,3.506 -3.917,5.075 z" /><path
         style="fill:#84000a"
         id="path236"
         d="m 468.404,435.928 c 0.923,0.162 1.945,0.269 3.078,0.302 0.845,-0.561 2.521,-1.963 4.416,-3.734 7.226,-4.389 13.929,-11.234 8.608,-13.092 -0.311,-0.108 -0.656,-0.214 -1.02,-0.316 -3.331,-1.051 -6.26,-1.428 -8.775,-1.14 -2.853,0.03 -5.617,0.502 -7.527,1.726 -0.101,-0.2 -0.307,-0.344 -0.533,-0.344 -0.15,-0.026 -0.316,0.01 -0.463,0.149 -0.119,0.114 -0.17,0.245 -0.176,0.37 -0.225,0.334 -0.533,0.847 -0.955,1.65 0.021,-0.036 0.044,-0.064 0.066,-0.098 -0.093,0.185 -0.146,0.388 -0.137,0.616 0,0.019 0.172,0.03 0.175,0.048 -2.951,5.271 -3.405,9.077 -1.405,11.402 0,0.01 0,0.025 0,0.036 0,0.042 -0.166,0.078 -0.17,0.119 -0.014,0.173 -0.109,0.321 -0.117,0.413 0.007,-0.074 -0.021,-0.213 -0.004,-0.408 -0.175,2.65 1.917,3.109 4.939,2.301 z" /><path
         style="fill:#84000a"
         id="path238"
         d="m 449.31,396.674 c -2.885,1.176 -3.012,1.517 -1.771,4.819 2.795,-1.039 3.081,-1.816 1.771,-4.819 z" /><g
         id="g240"><path
           style="fill:#84000a"
           id="path242"
           d="m 478.126,343.039 c -0.056,-0.066 -0.115,-0.119 -0.183,-0.152 0.043,-0.031 0.079,-0.063 0.13,-0.095 -0.045,0.03 -0.087,0.06 -0.135,0.091 -0.158,-0.086 -0.346,-0.094 -0.547,-0.016 -0.527,0.202 -0.899,0.609 -1.294,0.993 -0.066,0.066 -0.097,0.134 -0.122,0.204 -2.408,-0.012 -4.311,4.104 -2.377,5.608 0.694,1.288 2.619,1.563 3.885,0.253 0.566,-0.147 1.199,-0.367 1.887,-0.642 0.082,0.02 0.17,0.027 0.262,0.018 0.474,-0.057 0.538,-0.525 0.342,-0.846 0.141,-0.361 -0.199,-0.689 -0.547,-0.723 -0.254,-0.669 -0.521,-1.241 -0.799,-1.71 -0.026,-0.667 -0.117,-1.401 -0.301,-2.227 0.025,-0.116 0.022,-0.24 -0.047,-0.375 0.18,0.35 -0.036,-0.223 -0.094,-0.314 -0.013,-0.02 -0.03,-0.031 -0.045,-0.049 -0.023,-0.089 -0.041,-0.175 -0.068,-0.267 0.028,0.091 0.039,0.169 0.053,0.249 z m 0.925,6.229 c 0.038,-0.021 0.076,-0.042 0.116,-0.063 0.041,0.022 0.087,0.035 0.129,0.052 -0.089,0.013 -0.174,0.016 -0.245,0.011 z" /></g><path
         style="fill:#84000a"
         id="path244"
         d="m 742.36,284.012 c -3.56,1.053 -3.633,1.195 -2.838,5.165 3.545,-0.1 3.985,-0.848 2.838,-5.165 z" /><g
         id="g246"><path
           style="fill:#84000a"
           id="path248"
           d="m 520.235,250.03 c -0.022,-0.044 -0.039,-0.084 -0.061,-0.127 0.021,0.049 0.021,0.08 0.039,0.121 -0.061,-0.011 -0.12,-0.014 -0.182,-0.01 0.049,-0.038 0.076,-0.072 0.143,-0.11 -0.065,0.037 -0.111,0.076 -0.174,0.113 -0.199,0.022 -0.376,0.127 -0.45,0.298 -0.325,0.226 -0.62,0.448 -0.868,0.667 -1.293,0.185 -2.031,1.726 -1.301,2.679 0.355,1.5 2.768,2.044 3.541,0.562 0.085,-0.018 0.176,-0.042 0.26,-0.063 0.158,0.034 0.334,0.015 0.496,-0.103 0.02,-0.013 0.026,-0.023 0.041,-0.036 0.168,-0.046 0.336,-0.093 0.515,-0.152 -0.177,0.057 -0.325,0.088 -0.454,0.101 0.127,-0.103 0.219,-0.213 0.295,-0.364 0.053,0.076 0.105,0.161 0.159,0.263 -0.05,-0.1 -0.103,-0.172 -0.157,-0.266 0.014,-0.028 0.031,-0.044 0.047,-0.078 0.08,-0.188 -0.014,-0.427 -0.141,-0.567 -0.645,-0.726 -0.98,-1.635 -1.301,-2.538 -0.081,-0.229 -0.257,-0.347 -0.447,-0.39 z" /></g><g
         id="g250"><path
           style="fill:#84000a"
           id="path252"
           d="m 432.5,349.654 c 2.407,2.111 4.257,1.316 4.257,-0.418 0,-0.003 0,-0.007 0,-0.007 0,-3.751 -1.466,-3.653 -4.257,0.425 z" /></g><path
         style="fill:#84000a"
         id="path254"
         d="m 415.675,321.504 c -7.962,5.029 2.937,7.678 0,0 l 0,0 z" /><path
         style="fill:#84000a"
         id="path256"
         d="m 409.221,526.362 c -3.965,-0.847 -10.675,3.034 -12.706,7.313 3.273,-3.889 9.624,-2.461 12.706,-7.313 z" /><path
         style="fill:#84000a"
         id="path258"
         d="m 465.245,605.792 c -0.533,-0.63 -1.703,-0.778 -2.133,0.013 -0.039,-0.004 -0.073,-0.016 -0.115,-0.015 -0.2,0 -0.422,0.093 -0.516,0.281 -0.552,1.084 -0.235,2.332 1.096,2.511 0.014,0.022 0.023,0.042 0.034,0.067 -0.015,-0.028 0.177,-0.222 0.165,-0.245 0.02,10e-4 0.229,-0.188 0.237,-0.181 0.008,0.013 0.018,0.021 0.025,0.029 0,0 -0.215,0.202 -0.239,0.217 0.02,-0.011 -0.055,0.067 -0.037,0.057 0.102,0.089 0.178,0.201 0.312,0.221 0.565,0.077 1.095,0.028 1.651,-0.091 0.1,-0.021 0.18,-0.201 0.244,-0.251 0.078,0.014 0.158,-0.155 0.222,-0.149 0.03,0.003 0.063,0.007 0.093,0.01 0.436,0.045 0.725,-0.326 0.514,-0.709 -0.304,-0.557 -0.719,-0.975 -1.004,-1.544 -0.121,-0.241 -0.344,-0.245 -0.549,-0.221 z" /><g
         id="g260"><path
           style="fill:#84000a"
           id="path262"
           d="m 399.229,515.594 c -3.212,0.293 -12.736,13.782 -14.528,17.313 4.917,-1.283 10.391,-4.096 13.485,-8.169 2.721,-2.183 4.225,-4.181 2.303,-5.066 0.199,-1.091 0.247,-2.233 0.084,-3.433 -0.002,-0.002 -0.002,-0.008 -0.002,-0.012 -0.117,-0.806 -0.607,-0.95 -1.342,-0.633 z" /></g><g
         id="g264"><path
           style="fill:#84000a"
           id="path266"
           d="m 368.295,515.28 c -0.061,-0.002 -0.121,-0.007 -0.19,0.012 -0.377,0.102 -0.746,0.153 -1.135,0.155 -0.203,-0.16 -0.354,-0.002 -0.598,0.23 -0.337,0.318 -0.394,0.389 0.281,1.146 -0.017,0.01 -0.028,0.018 -0.047,0.029 0.019,-0.012 0.03,-0.02 0.048,-0.029 0.013,-0.008 -0.075,-0.191 -0.046,-0.18 0.008,0.012 -0.044,-0.086 -0.033,-0.076 -0.078,0.012 -0.172,-0.043 -0.197,-0.084 0.209,0.355 0.779,0.311 1.555,0.068 0.15,-0.027 0.297,-0.062 0.448,-0.104 0.128,-0.035 0.212,-0.11 0.282,-0.195 4.35,-1.823 11.998,-8.206 -0.368,-0.972 z" /></g><g
         id="g268"><path
           style="fill:#84000a"
           id="path270"
           d="m 466.038,587.679 c -0.031,-0.016 -0.07,-0.028 -0.102,-0.043 -0.004,-0.01 -0.004,-0.021 -0.009,-0.029 -0.14,-0.306 -0.513,-0.367 -0.794,-0.241 -0.238,0.106 -0.426,0.249 -0.62,0.425 -0.103,0.096 -0.146,0.201 -0.166,0.31 -9.398,6.632 -12.024,11.817 -7.875,15.557 0.008,0.008 0.015,0.014 0.023,0.021 -0.013,-10e-4 -0.024,0.002 -0.032,-0.007 0.019,0.014 0.041,0.022 0.06,0.034 0.353,0.312 0.737,0.615 1.179,0.907 1.854,-1.664 13.355,-11.043 10,-15.624 1.166,-3.345 1.035,-4.949 -1.664,-1.31 z" /></g><path
         style="fill:#84000a"
         id="path272"
         d="m 334.627,535.312 c 9.001,-0.781 22.741,-3.971 24.233,-15.76 9.488,-5.699 -24.763,12.012 -24.233,15.76 z" /><path
         style="fill:#84000a"
         id="path274"
         d="m 365.335,537.983 c 4.547,-0.208 9.521,-3.5 10.506,-6.947 -3.678,-0.62 -8.322,2.452 -10.506,6.947 z" /><g
         id="g276"><path
           style="fill:#84000a"
           id="path278"
           d="m 496.704,707.907 c 0.002,-0.23 0.005,-0.456 -0.002,-0.687 -0.004,-0.224 -0.021,-0.451 -0.032,-0.679 -0.014,-0.216 -0.022,-0.43 -0.042,-0.648 -0.021,-0.248 -0.055,-0.498 -0.084,-0.75 -0.025,-0.197 -0.045,-0.396 -0.076,-0.597 -0.041,-0.29 -0.097,-0.582 -0.151,-0.872 -0.029,-0.168 -0.054,-0.328 -0.087,-0.495 -0.096,-0.458 -0.203,-0.921 -0.327,-1.385 -0.188,0.359 -0.384,0.721 -0.585,1.081 -0.058,0.104 -0.118,0.209 -0.177,0.315 -0.158,0.276 -0.313,0.555 -0.472,0.832 -0.035,0.059 -0.068,0.117 -0.104,0.174 -0.479,0.83 -0.971,1.662 -1.45,2.506 -0.014,0.023 -0.03,0.051 -0.044,0.076 -0.913,1.61 -1.77,3.266 -2.392,5.009 -0.026,0.072 -0.054,0.141 -0.077,0.214 -0.103,0.294 -0.194,0.591 -0.279,0.89 -0.027,0.091 -0.052,0.184 -0.076,0.273 -0.08,0.299 -0.156,0.599 -0.218,0.9 -0.022,0.093 0.131,0.201 0.112,0.296 -0.061,0.312 0.043,0.643 0.011,0.963 -0.007,0.064 -0.014,0.131 -0.021,0.2 -0.124,1.204 -0.304,2.438 -0.102,3.759 0.075,0.724 0.223,1.708 0.725,3.075 0.362,-0.301 0.587,-0.626 0.774,-0.953 0.277,-0.334 0.519,-0.669 0.775,-1.007 0.029,-0.041 0.053,-0.082 0.084,-0.122 0.234,-0.31 0.447,-0.628 0.662,-0.944 0.049,-0.068 0.09,-0.135 0.136,-0.202 0.196,-0.298 0.384,-0.6 0.563,-0.9 0.055,-0.089 0.107,-0.179 0.158,-0.266 0.17,-0.286 0.326,-0.576 0.477,-0.866 0.056,-0.106 0.113,-0.213 0.167,-0.319 0.141,-0.278 0.271,-0.557 0.399,-0.84 0.055,-0.122 0.109,-0.243 0.162,-0.366 0.113,-0.271 0.225,-0.541 0.326,-0.818 0.051,-0.135 0.101,-0.27 0.148,-0.404 0.093,-0.266 0.182,-0.531 0.264,-0.799 0.044,-0.146 0.088,-0.298 0.131,-0.446 0.072,-0.259 0.139,-0.518 0.2,-0.778 0.04,-0.162 0.075,-0.324 0.106,-0.488 0.053,-0.252 0.103,-0.502 0.146,-0.759 0.03,-0.174 0.056,-0.353 0.079,-0.529 0.033,-0.243 0.065,-0.488 0.091,-0.736 0.021,-0.191 0.034,-0.382 0.048,-0.573 0.016,-0.237 0.035,-0.475 0.043,-0.713 0.011,-0.209 0.007,-0.415 0.011,-0.622 z m -6.568,12.676 c 0.006,0.024 0.011,0.052 0.016,0.079 -0.006,-0.028 -0.01,-0.055 -0.016,-0.079 z" /></g><path
         style="fill:#84000a"
         id="path280"
         d="m 468.12,648.011 c -3.141,2.913 -7.717,4.589 -5.614,10.03 4.081,-1.599 6.355,-5.489 5.614,-10.03 z" /><g
         id="g282"><path
           style="fill:#84000a"
           id="path284"
           d="m 455.962,612.329 c -0.064,-0.062 -0.145,-0.111 -0.254,-0.137 -0.198,-0.045 -0.361,-0.112 -0.508,-0.194 -0.111,-0.087 -0.262,-0.197 -0.436,-0.324 -0.301,-0.293 -0.529,-0.658 -0.828,-1.037 -0.225,-0.284 -0.586,-0.215 -0.813,-0.007 -0.011,-0.007 -0.019,-0.015 -0.031,-0.021 0.011,0.007 0.018,0.014 0.028,0.021 -0.016,0.014 -0.031,0.032 -0.049,0.048 0.007,-0.023 0.006,-0.046 0.021,-0.069 -0.509,0.881 -1.086,1.646 -1.704,2.333 -4.965,1.646 -10.619,5.96 -9.578,9.606 0.621,2.166 1.236,3.53 1.855,4.299 -0.026,0.087 -0.041,0.184 -0.01,0.282 0.104,0.374 0.19,0.63 0.309,0.934 0.002,0.157 0.064,0.284 0.167,0.378 0.146,0.24 0.521,0.338 0.758,0.193 0.992,-0.612 1.731,-1.534 2.452,-2.472 0.01,-0.009 0.018,-0.02 0.027,-0.029 2.791,-2.039 6.595,-4.207 8.703,-6.599 0.809,0.069 1.526,-1.112 1.592,-1.876 0.004,-0.053 -0.002,-0.09 -0.002,-0.139 1.316,-3.319 0.324,-4.86 -1.699,-5.19 z m 1.697,4.856 c -0.016,-0.163 -0.043,-0.31 -0.082,-0.438 0.063,0.112 0.084,0.264 0.082,0.438 z" /></g><path
         style="fill:#84000a"
         id="path286"
         d="m 505.437,662.995 c -2.644,3.647 -3.68,7.069 -3.861,10.881 -2.06,7.085 -3.519,15.021 -1.951,17.601 5.51,-9.458 7.77,-19.379 6.781,-29.762 -0.407,0.493 -0.723,0.918 -0.969,1.28 z" /><path
         style="fill:#84000a"
         id="path288"
         d="m 388.868,412.14 c -0.311,-0.008 -0.608,0.021 -0.884,0.096 -11.435,1.637 -8.964,8.39 -4.809,13.301 -0.011,0.058 -0.021,0.104 -0.03,0.156 -0.025,0.043 -0.055,0.077 -0.072,0.129 -0.055,0.154 -0.109,0.299 -0.156,0.441 -0.035,0.068 -0.066,0.135 -0.115,0.205 -0.016,0.021 -0.016,0.041 -0.027,0.063 -0.351,0.341 -0.259,1.058 0.336,0.999 0.028,-0.004 0.057,-0.005 0.084,-0.007 0.171,0.096 0.382,0.123 0.551,0.016 0.031,-0.019 0.062,-0.025 0.093,-0.041 0.121,-0.004 0.243,-0.013 0.36,-0.031 0.374,0.139 0.762,0.265 1.168,0.369 0.881,0.824 1.746,1.528 2.494,2.048 -0.044,-0.029 -0.083,-0.056 -0.121,-0.085 0.039,0.029 0.069,0.051 0.121,0.086 3.454,2.402 6.224,0.465 7.713,-2.874 3.215,-1.632 4.592,-4.814 0.666,-9.638 -0.96,-3.178 -3.282,-5.555 -7.372,-5.233 z" /><path
         style="fill:#84000a"
         id="path290"
         d="m 614.723,664.048 c 2.715,-2.014 2.559,-7.545 -0.5,-12.802 -0.311,4.254 -2.332,8.584 0.5,12.802 z" /><g
         id="g292"><path
           style="fill:#84000a"
           id="path294"
           d="m 570.451,602.631 c -0.034,-0.267 -0.078,-0.581 -0.129,-0.924 0.022,-0.093 0.107,0.137 0.281,1.137 -0.464,-2.648 -0.931,-5.298 -1.416,-8.077 -0.067,0.205 -0.12,0.388 -0.183,0.583 0.023,-0.313 0.077,-0.529 0.183,-0.583 -2.779,1.364 -1.345,2.188 -0.475,1.54 -1.573,5.397 -1.098,7.639 1.432,6.722 0.354,1.455 0.592,1.925 0.339,-0.137 0.04,-0.02 0.077,-0.029 0.12,-0.048 -0.056,0.018 -0.108,-0.073 -0.152,-0.213 z" /></g><path
         style="fill:#84000a"
         id="path296"
         d="m 365.548,417.544 c 0.012,0.143 -0.007,0.263 -0.027,0.38 -6.076,4.883 3.246,5.751 1.158,0.281 0.041,-0.206 0.063,-0.416 0.043,-0.63 -0.067,-0.745 -1.241,-0.786 -1.174,-0.031 z" /><path
         style="fill:#84000a"
         id="path298"
         d="m 411.021,430.391 c -2.142,-0.035 -3.979,-0.069 -6.251,-0.108 2.307,3.199 4.065,3.182 6.251,0.108 z" /><g
         id="g300"><path
           style="fill:#84000a"
           id="path302"
           d="m 409.253,406.4 c -0.143,-0.078 -0.104,0.133 -0.287,0.264 -0.554,0.396 -0.808,1.094 -1.3,1.56 -0.003,0.002 -0.004,0.003 -0.006,0.005 -1.041,0.986 -2.443,3.109 -1,3.727 0.539,0.598 1.464,0.509 2.165,-0.32 0.282,-0.105 0.545,-0.303 0.876,-0.465 0.159,0 0.287,-0.092 0.388,-0.234 0.016,-0.008 0.018,-0.025 0.034,-0.036 -0.017,0.009 -0.036,0.005 -0.051,0.013 0.011,-0.017 0.019,-0.039 0.032,-0.059 0.002,0.014 0.006,0.021 0.006,0.033 0,-0.012 -0.008,-0.023 -0.01,-0.037 0.021,-0.043 0.043,-0.089 0.055,-0.143 0.143,-0.581 -0.098,-1.074 -0.33,-1.596 -0.285,-0.643 -0.172,-1.322 -0.025,-1.98 0.096,-0.417 -0.221,-0.693 -0.547,-0.732 z" /></g><g
         id="g304"><path
           style="fill:#84000a"
           id="path306"
           d="m 318.87,412.108 c -0.021,0.058 -0.044,0.115 -0.067,0.173 -0.233,0.156 -0.444,0.311 -0.636,0.461 -1.232,0.158 -2.113,1.594 -1.385,2.326 0.161,0.681 0.99,1.088 1.758,0.948 0.887,0.167 2.074,0.222 2.332,-0.897 0.006,-0.002 0.01,-0.002 0.014,-0.004 -0.004,0.002 -0.006,0.002 -0.012,0.004 0.002,-0.001 0.061,-0.103 0.063,-0.107 0.002,0.002 0.058,-0.085 0.06,-0.08 -0.002,-0.005 -0.003,-0.01 -0.004,-0.014 -0.005,-0.013 -0.063,-0.004 -0.058,-0.021 0.132,-0.472 0.015,-0.84 -0.193,-1.276 -0.201,-0.425 -0.66,-0.852 -0.701,-1.338 -0.056,-0.666 -0.923,-0.815 -1.171,-0.175 z" /></g><path
         style="fill:#84000a"
         id="path308"
         d="m 590.358,200.656 c 0.636,1.338 -1.325,0.933 0,0 -9.234,6.499 4.851,10.218 0,0 z" /><path
         style="fill:#84000a"
         id="path310"
         d="m 776.503,487.603 c -0.649,-1.73 1.187,-0.516 0,0 9.107,-3.96 -5.178,-13.813 0,0 z" /><path
         style="fill:#84000a"
         id="path312"
         d="m 748.334,434.302 c -0.075,-0.127 -0.369,-0.035 -0.448,-0.17 -0.059,0.043 -0.112,0.091 -0.17,0.133 -0.416,-0.203 -1.029,0.193 -0.963,0.617 -3.314,2.73 -2.996,4.395 -0.996,5.018 0,0.002 0,0.006 0,0.002 0,0.131 1.261,0.27 1.851,0.242 0.427,0.008 0.858,-0.047 1.151,-0.166 1.726,-0.514 2.813,-2.148 0.131,-4.904 0.08,-0.205 0.208,-0.506 0.073,-0.65 l -0.19,-0.209 c -0.066,-0.068 -0.37,0.118 -0.439,0.087 z" /><g
         id="g314"><path
           style="fill:#84000a"
           id="path316"
           d="m 739.18,416.455 c -0.013,-0.023 -0.021,-0.036 -0.038,-0.06 -0.031,-0.005 -0.056,-0.007 -0.088,-0.012 -1.163,-0.735 -2.807,-0.827 -4.957,-0.246 -1.963,0.19 -3.475,0.804 -4.55,1.835 -0.023,0.012 -0.045,0.021 -0.069,0.033 -0.015,0.024 -0.027,0.049 -0.045,0.072 -0.748,0.762 -1.272,1.734 -1.563,2.932 -1.392,3.357 -0.977,5.928 0.403,7.574 0.009,0.045 0.017,0.084 0.028,0.129 1.906,4.988 16.103,2.513 12.762,-8.223 -0.181,-1.941 -0.806,-3.29 -1.883,-4.034 z m -0.034,-0.053 c 0.012,0.018 0.023,0.035 0.033,0.053 l -0.003,-0.002 c -0.011,-0.018 -0.018,-0.034 -0.03,-0.051 z" /></g><path
         style="fill:#84000a"
         id="path318"
         d="m 572.144,206.202 c 0.487,1.301 -1.27,0.894 0,0 -8.84,6.228 3.715,9.934 0,0 z" /><g
         id="g320"><path
           style="fill:#84000a"
           id="path322"
           d="m 771.661,419.103 c 0.059,0.146 0.086,0.302 0.077,0.465 0.068,-0.088 0.145,-0.232 0.227,-0.523 -0.138,-0.034 -0.233,-0.001 -0.304,0.058 z" /><path
           style="fill:#84000a"
           id="path324"
           d="m 771.738,419.568 c 0.009,-0.163 -0.019,-0.318 -0.077,-0.465 0.071,-0.059 0.166,-0.092 0.304,-0.059 -0.125,-0.029 -0.231,-0.029 -0.35,-0.039 -0.033,-0.068 -0.057,-0.139 -0.101,-0.205 -0.098,-0.16 -0.259,-0.241 -0.425,-0.266 -0.583,-0.464 -1.784,0.996 -2.029,2.497 -0.332,1.284 -0.045,2.672 0.608,2.555 0.213,0.438 0.907,0.479 1.088,-0.075 0.011,-0.035 0.031,-0.078 0.043,-0.116 0.078,-0.097 0.128,-0.21 0.128,-0.334 0.411,-0.991 1.087,-2.282 0.825,-3.306 0.071,-0.229 0.143,-0.457 0.212,-0.711 -0.081,0.291 -0.157,0.436 -0.226,0.524 z" /></g><path
         style="fill:#84000a"
         id="path326"
         d="m 814.513,586.519 c 0.141,1.232 -0.696,0.156 0,0 -4.37,0.97 1,8.627 0,0 z" /><path
         style="fill:#84000a"
         id="path328"
         d="m 752.401,610.536 c 0.69,-2.303 1.172,-3.9 1.653,-5.497 -0.481,1.597 -0.664,0.038 0,0 -3.121,-0.402 -3.67,1.431 -1.653,5.497 z" /><g
         id="g330"><path
           style="fill:#84000a"
           id="path332"
           d="m 674.734,507.804 c -4.495,5.113 -6.647,15.264 -2.846,21.168 0.201,0.986 0.487,1.709 0.873,2.047 0.159,0.493 0.524,0.894 1.095,1.066 0.405,0.119 0.784,0.049 1.098,-0.137 0.086,0.055 0.171,0.111 0.262,0.161 -0.091,-0.05 -0.147,-0.129 -0.184,-0.22 0.056,-0.037 0.116,-0.07 0.166,-0.116 0.042,-0.003 0.083,-0.013 0.124,-0.022 -0.033,0.111 -0.063,0.225 -0.106,0.358 0.04,-0.124 0.081,-0.239 0.118,-0.362 0.159,-0.049 0.292,-0.172 0.34,-0.389 0.043,-0.207 0.042,-0.417 0.087,-0.621 0.014,-0.08 0.008,-0.154 -0.004,-0.227 2.307,-6.504 4.923,-9.678 4.811,-13.146 0.972,-3.017 -0.275,-3.863 -5.834,-9.56 z" /></g><g
         id="g334"><path
           style="fill:#84000a"
           id="path336"
           d="m 495.644,359.015 c -6.994,5.222 -13.313,13.28 -9.44,16.222 -0.129,0.031 -0.251,0.117 -0.344,0.269 -0.063,0.108 -0.15,0.198 -0.214,0.306 -0.142,0.234 -0.084,0.467 0.06,0.636 -0.026,0.064 -0.047,0.108 -0.052,0.119 0.021,-0.044 0.039,-0.073 0.057,-0.114 0.026,0.031 0.044,0.067 0.076,0.092 -0.045,0.005 -0.084,0.019 -0.133,0.022 0.049,-0.002 0.105,-0.007 0.158,-0.009 0.067,0.05 0.143,0.091 0.229,0.112 0.604,0.454 2.039,-0.058 2.919,-0.405 0.038,-0.006 0.077,0.236 0.117,0.229 0.935,0.122 2.039,0.305 3.348,0.305 0.012,0 0.021,0 0.027,0 2.619,-1 6.583,-1.84 10.148,-4.072 7.182,-3.305 12.218,-8.906 5.893,-17.199 -3.847,-5.054 -8.646,-1.876 -12.849,3.487 z" /></g><path
         style="fill:#84000a"
         id="path338"
         d="m 684.002,547.146 c -10e-4,0.422 0.051,0.838 0.12,1.251 -0.023,1.714 0.563,6.103 1.412,9.133 0.354,1.593 0.747,3.024 1.052,3.854 0,0.101 0.01,0.2 0.008,0.304 -0.016,0.758 1.159,0.788 1.175,0.033 0.022,-1.161 -0.074,-2.316 -0.186,-3.47 -0.019,-0.182 -0.114,-0.308 -0.228,-0.403 -0.373,-1.428 -0.625,-2.887 -1.124,-4.28 -0.051,-0.146 -0.141,-0.239 -0.25,-0.307 -0.108,-0.64 -0.23,-1.315 -0.363,-2.04 0.063,-1.363 -0.447,-2.677 -0.443,-4.039 0.004,-0.761 -1.171,-0.793 -1.173,-0.036 z" /><path
         style="fill:#84000a"
         id="path340"
         d="m 662.413,527.016 c -0.188,-0.008 -0.336,0.081 -0.441,0.21 -0.626,0.316 -1.337,1.361 -1.383,2.375 -0.109,0.65 -0.015,1.294 0.236,1.628 0.008,0.405 0.53,0.698 0.952,0.442 0.047,-0.031 0.321,-0.09 0.328,-0.084 l 0.045,0.047 -0.196,0.187 c 0.487,-0.462 0.917,-0.915 1.178,-1.438 0.044,-0.03 0.051,-0.098 0.091,-0.145 0.839,-1.078 0.994,-3.153 -0.81,-3.222 z" /><path
         style="fill:#84000a"
         id="path342"
         d="m 469.785,269.413 c 3.957,9.858 14.07,-3.553 13.181,-9.136 -7.742,-7.584 -12.136,-4.538 -13.181,9.136 z" /><g
         id="g344"><path
           style="fill:#84000a"
           id="path346"
           d="m 540.613,257.524 c -0.011,0.027 -0.007,0.053 -0.017,0.08 -0.111,0.019 -0.223,0.059 -0.32,0.129 -0.475,0.349 -0.924,0.721 -1.342,1.125 -1.49,0.703 -2.336,3.242 -1.042,4.315 0.718,1.14 2.408,1.525 3.406,0.477 0.096,-0.021 0.19,-0.056 0.276,-0.135 0.355,-0.314 0.68,-0.522 1.138,-0.648 0.101,-0.028 0.179,-0.079 0.245,-0.137 0.042,-0.019 0.076,-0.03 0.119,-0.05 -0.043,0.02 -0.074,0.027 -0.113,0.042 0.035,-0.031 0.064,-0.063 0.09,-0.099 0.007,0.021 0.015,0.035 0.023,0.057 -0.008,-0.021 -0.017,-0.036 -0.021,-0.059 0.079,-0.127 0.111,-0.286 0.095,-0.46 -0.104,-1.001 -0.923,-1.895 -1.31,-2.833 -0.051,-0.243 -0.112,-0.496 -0.184,-0.759 -0.017,-0.234 -0.004,-0.472 0.084,-0.718 0.257,-0.712 -0.87,-1.038 -1.127,-0.327 z" /></g><path
         style="fill:#84000a"
         id="path348"
         d="m 769.157,231.861 c -2.258,2.485 -3.882,9.192 1.258,-0.813 -0.335,0.656 -0.895,0.842 -1.258,0.813 z" /><path
         style="fill:#84000a"
         id="path350"
         d="m 770.415,231.048 c -1.907,0.21 -1.815,0.768 -1.258,0.813 0.408,-0.452 0.841,-0.767 1.258,-0.813 z" /><path
         style="fill:#84000a"
         id="path352"
         d="m 636.405,162.448 c 0.56,1.244 -1.351,0.805 0,0 -9.801,5.842 4.589,10.209 0,0 z" /><path
         style="fill:#84000a"
         id="path354"
         d="m 866.995,198.894 c 10e-4,0 0.417,0.438 0.417,0.438 l 0.19,-0.184 c 3.087,1.547 3.98,-0.021 1.671,-5.625 -2.497,1.238 -3.96,3.598 -2.278,5.371 z" /><g
         id="g356"><path
           style="fill:#84000a"
           id="path358"
           d="m 745.38,327.265 c -0.069,0.017 -0.133,0.029 -0.211,0.057 0.048,0.111 0.097,0.201 0.144,0.287 0.009,-0.122 0.036,-0.236 0.067,-0.344 z" /><path
           style="fill:#84000a"
           id="path360"
           d="m 747.285,332.243 c 0.012,0.033 0.02,0.06 0.034,0.094 0.031,-0.015 0.055,-0.033 0.082,-0.048 -0.038,-0.008 -0.078,-0.031 -0.116,-0.046 z" /><path
           style="fill:#84000a"
           id="path362"
           d="m 746.72,326.464 c -0.794,-0.106 -1.189,0.258 -1.339,0.793 -0.07,0.022 -0.137,0.037 -0.212,0.064 0.078,-0.027 0.142,-0.04 0.211,-0.057 -0.031,0.108 -0.058,0.223 -0.067,0.343 -0.047,-0.086 -0.096,-0.176 -0.144,-0.287 0.048,0.111 0.096,0.205 0.142,0.312 -0.032,0.421 0.042,0.894 0.176,1.318 0.229,0.731 0.557,1.435 0.913,2.112 0.192,0.369 0.419,0.903 0.782,1.14 0.034,0.021 0.065,0.023 0.099,0.039 0.016,0.032 0.024,0.062 0.039,0.095 -0.015,-0.034 -0.022,-0.061 -0.034,-0.094 0.038,0.016 0.078,0.039 0.116,0.045 -0.027,0.016 -0.051,0.034 -0.082,0.048 0.031,-0.015 0.057,-0.031 0.087,-0.048 0.245,0.043 0.458,-0.105 0.569,-0.315 0.218,-0.13 0.398,-0.268 0.577,-0.404 1.434,0.274 2.2,-1.789 1.467,-3.269 -0.44,-1.608 -2.349,-2.682 -3.3,-1.835 z" /></g><path
         style="fill:#84000a"
         id="path364"
         d="m 733.449,336.243 c -0.484,0.387 -0.936,0.808 -1.358,1.256 -0.114,0.071 -0.228,0.147 -0.34,0.23 -0.913,0.399 -1.395,0.934 -1.44,1.606 -0.592,1.096 -0.529,2.328 1.081,3.143 0.483,1.344 2.005,1.165 2.858,0.033 0.743,-0.985 0.505,-2.373 0.229,-3.676 0.116,-0.551 0.106,-0.958 0.005,-1.252 0.07,-0.343 0.064,-0.684 -0.059,-1.047 -0.15,-0.44 -0.611,-0.587 -0.976,-0.293 z" /><path
         style="fill:#84000a"
         id="path366"
         d="m 431.041,815.81 c -2.976,-2.801 -4.034,-1.451 -3.176,4.049 2.507,-0.273 3.654,-1.721 3.176,-4.049 z" /><path
         style="fill:#84000a"
         id="path368"
         d="m 571.662,965.318 c 5.815,-10.505 9.583,-46.633 5.427,-50.166 -3.358,5.073 -7.116,38.974 -5.427,50.166 z" /><path
         style="fill:#84000a"
         id="path370"
         d="m 662.557,1033.797 c 3.166,0.191 4.128,-0.831 3.541,-2.783 -2.342,-2.702 -3.525,-1.774 -3.541,2.783 z" /><path
         style="fill:#84000a"
         id="path372"
         d="m 579.188,838.671 c -0.053,-0.102 -0.02,0.148 -0.021,0.179 -0.011,0.211 -0.052,0.419 -0.09,0.63 -0.017,0.095 -0.038,0.192 -0.06,0.289 -1.267,2.407 -1.39,3.813 -0.358,4.206 0.204,0.504 0.587,0.934 1.119,0.846 0.399,-0.063 0.6,-0.326 0.681,-0.657 0.408,-0.543 0.159,-1.354 -0.159,-1.982 -0.044,-0.678 -0.089,-1.357 -0.133,-2.037 0.18,-0.692 0.349,-1.482 0.058,-2.028 -0.359,-0.671 -1.392,-0.116 -1.037,0.554 z" /><path
         style="fill:#84000a"
         id="path374"
         d="m 585.703,849.471 c 0.015,0.034 0.022,0.078 0.037,0.115 -0.024,-0.02 -0.044,-0.039 -0.069,-0.048 10e-4,-0.041 0.009,-0.072 0.032,-0.067 -7.937,-1.171 -8.951,6.115 -3.032,21.857 2.223,-3.986 3.878,-12.751 3.596,-18.391 0.184,-0.553 0.17,-1.191 -0.044,-1.712 0.175,0.4 0.234,0.411 -0.161,-0.736 -0.02,-0.193 -0.049,-0.386 -0.095,-0.578 -0.038,-0.149 -0.121,-0.247 -0.219,-0.317 -0.015,-0.042 -0.027,-0.081 -0.045,-0.123 z" /><g
         id="g376"><path
           style="fill:#84000a"
           id="path378"
           d="m 273.171,548.185 c -0.003,-0.014 -0.005,-0.022 -0.008,-0.039 -0.021,0.01 -0.034,0.02 -0.053,0.026 0.02,0.003 0.039,0.007 0.061,0.013 z" /><path
           style="fill:#84000a"
           id="path380"
           d="m 273.171,548.185 c -0.002,-0.014 -0.005,-0.023 -0.008,-0.039 0.003,0.017 0.005,0.025 0.008,0.039 -0.021,-0.006 -0.041,-0.01 -0.061,-0.013 0.019,-0.007 0.031,-0.017 0.053,-0.026 -0.021,0.01 -0.038,0.018 -0.059,0.026 -0.228,-0.037 -0.469,0.044 -0.599,0.243 -0.665,0.273 -1.253,0.551 -1.776,0.834 -3.347,0.345 -5.778,7.387 -1.257,7.148 1.115,0.457 2.419,0.441 3.354,-0.307 0.536,-0.033 0.97,-0.276 1.338,-0.743 0.09,-0.115 0.156,-0.241 0.221,-0.372 0.955,-0.184 1.347,-1.033 0.879,-1.982 -0.063,-0.125 -0.154,-0.195 -0.262,-0.24 -0.103,-0.143 -0.264,-0.234 -0.428,-0.264 -0.197,-0.41 -0.395,-0.777 -0.6,-1.102 -0.09,-0.623 -0.23,-1.304 -0.448,-2.059 0.024,-0.198 0.05,-0.395 0.056,-0.591 0.015,-0.31 -0.177,-0.491 -0.411,-0.552 z" /></g><path
         style="fill:#84000a"
         id="path382"
         d="m 566.16,871.328 c 3.409,-0.003 3.778,-0.708 2.706,-4.729 -3.412,0.293 -1.516,3.221 -2.706,4.729 z" /><g
         id="g384"><path
           style="fill:#84000a"
           id="path386"
           d="m 583.231,875.837 c 0.068,0.099 0.111,0.187 0.154,0.273 -0.032,-0.038 -0.061,-0.089 -0.098,-0.116 -0.021,-0.053 -0.025,-0.207 -0.046,-0.265 -0.05,0.024 -0.073,-0.02 -0.117,-0.023 -0.003,-10e-4 -0.008,-0.002 -0.011,-0.002 0.045,0.006 0.074,0.052 0.128,0.025 -0.051,0.027 -0.099,0.105 -0.15,0.132 -0.245,-0.038 -0.506,0.132 -0.632,0.356 -3.209,1.832 -2.644,3.798 -1.23,4.84 0.047,0.168 0.052,0.517 0.027,0.429 -0.021,-0.074 -0.054,0.053 -0.076,0.05 0.002,0 0.004,0.001 0.007,0.002 0.022,0.002 0.052,-0.107 0.069,-0.047 0.313,0.138 0.604,0.121 0.866,0.197 2.038,0.798 4.491,-0.206 1.651,-4.932 -0.022,-0.073 -0.058,-0.175 -0.122,-0.245 -0.086,-0.073 -0.144,-0.176 -0.182,-0.283 -0.001,-0.008 -0.008,-0.016 -0.01,-0.021 -0.077,-0.12 -0.143,-0.242 -0.228,-0.37 z" /></g><path
         style="fill:#84000a"
         id="path388"
         d="m 624.759,901.785 c -0.322,1.329 -0.64,-0.061 0,0 -4.553,-0.434 -2.254,9.231 0,0 z" /><path
         style="fill:#84000a"
         id="path390"
         d="m 261.383,719.314 c -2.568,0.459 -4.31,1.175 -3.641,4.151 0,0 10e-4,10e-4 0.003,0.005 2.863,2.721 4.262,1.101 3.638,-4.156 z" /><g
         id="g392"><path
           style="fill:#84000a"
           id="path394"
           d="m 215.574,679.849 c -0.699,0.936 -0.366,0.862 0.354,0.296 0.119,0.099 0.211,0.2 0.36,0.299 -0.215,-0.188 1.962,-0.492 1.477,-0.327 2.208,-0.575 2.356,-1.353 1.959,-4.881 -4.091,1.645 -5.472,3.182 -4.15,4.613 z" /></g><path
         style="fill:#84000a"
         id="path396"
         d="m 445.046,998.105 c 0.681,-1.597 1.541,-0.704 -0.434,4.761 3.094,-8.572 6.186,-17.144 9.279,-25.715 -4.351,-0.997 -7.679,13.151 -8.845,20.954 z" /><g
         id="g398"><path
           style="fill:#84000a"
           id="path400"
           d="m 220.794,711.057 c 0,0.005 0.005,0.009 0.005,0.01 0.096,0.171 0.204,0.342 0.332,0.517 -0.143,-0.234 1.555,-0.126 0,0 2.143,0.523 3.698,0.395 4.68,-0.381 0.006,0 -0.167,-0.191 -0.159,-0.19 -0.008,-0.001 -0.194,-0.194 -0.199,-0.19 0.007,-0.004 0.015,-0.013 0.02,-0.019 -0.003,0.005 0.18,0.202 0.18,0.209 0,-0.007 0.091,0.083 0.092,0.075 1.128,-0.909 1.533,-2.629 1.108,-5.277 -5.344,1.168 -7.33,2.951 -6.059,5.246 z" /></g><path
         style="fill:#84000a"
         id="path402"
         d="m 567.965,998.725 c -0.079,0.606 -0.122,0.937 -0.022,0.165 -2.263,4.339 -2.44,8.725 -0.532,13.151 3.881,-2.851 6.496,-60.15 0.554,-13.316 z" /><path
         style="fill:#84000a"
         id="path404"
         d="m 581.524,1008.052 c -0.263,5.178 -0.549,-0.026 0,0 -3.02,-0.145 -2.013,39.638 0,0 z" /><path
         style="fill:#84000a"
         id="path406"
         d="m 438.83,910.466 c 2.058,-8.407 8.341,-15.653 6.549,-25.115 -3.814,7.925 -7.31,15.936 -6.549,25.115 z" /><path
         style="fill:#84000a"
         id="path408"
         d="m 241.504,676.698 c 2.802,-1.125 3.925,-2.689 2.663,-5.651 -2.555,1.132 -4.287,2.363 -2.663,5.651 z" /><g
         id="g410"><path
           style="fill:#84000a"
           id="path412"
           d="m 488.161,442.632 c -0.201,0.452 -3.983,-0.65 0,0 -2.725,-0.692 -5.486,-0.895 -8.235,-1.161 -0.633,-0.069 -1.33,0.177 -2.055,0.102 -0.013,-10e-4 -0.021,-0.002 -0.032,-0.003 -3.459,-0.357 -6.939,-0.344 -10.454,0.122 0.222,0.741 0.473,1.304 0.723,1.978 -3.104,3.733 1.706,10.21 6.3,10.519 5.379,0.372 15.258,-5.931 13.014,-9.95 0.249,-0.505 0.497,-1.058 0.739,-1.607 z" /></g><path
         style="fill:#84000a"
         id="path414"
         d="m 750.101,717.694 c -0.002,-2.551 0.699,-4.874 -0.12,-6.322 -0.551,-0.969 -3.213,-5.653 -0.004,-0.006 -1.253,-2.205 -4.756,-38.634 -10.909,-39.71 -1.419,4.679 2.681,43.345 11.033,46.038 z" /><path
         style="fill:#84000a"
         id="path416"
         d="m 632.205,637.496 c 1.07,-4.699 2.774,-8.818 0.805,-13.521 -3.02,3.175 -3.663,11.104 -0.805,13.521 z" /><path
         style="fill:#84000a"
         id="path418"
         d="m 650.849,587.033 c 1.54,-1.491 2.067,-16.242 0.683,-19.201 -2.156,1.744 -2.636,15.132 -0.683,19.201 z" /><g
         id="g420"><path
           style="fill:#84000a"
           id="path422"
           d="m 452.508,334.882 c 0.006,0.015 0.367,-0.315 0.376,-0.305 -0.003,-0.003 -0.006,-0.007 -0.009,-0.01 -0.007,-0.006 -0.362,0.322 -0.367,0.315 -0.015,-0.011 -0.204,0.152 -0.219,0.142 -0.425,-0.446 -1.093,-0.707 -1.702,-0.904 -0.472,-0.196 -0.926,-0.21 -1.275,-0.137 -1.797,0.082 -3.25,1.825 -1.32,6.612 5.254,-1.598 5.65,-4.095 4.364,-5.516 -0.066,-0.153 0.076,-0.38 0.152,-0.197 z" /></g><g
         id="g424"><path
           style="fill:#84000a"
           id="path426"
           d="m 431.499,430.833 c -4.535,-0.735 -10.586,-0.229 -6.88,0.775 -0.015,0.019 -0.03,0.025 -0.041,0.045 -0.182,0.274 -0.06,0.635 0.196,0.807 0.404,0.264 1.072,0.168 1.517,0.084 0.573,-0.111 1.088,-0.167 1.604,-0.158 0.112,0.007 0.218,0.015 0.329,0.021 0.422,0.028 0.847,0.117 1.316,0.24 0.731,0.189 1.463,0.056 2.189,0.131 0.034,0.004 0.07,0.008 0.105,0.011 0.227,0.024 0.458,0.021 0.686,0.091 0.482,0.155 2.087,0 2.347,0.366 0.431,0.614 1.472,0.06 1.038,-0.56 -0.018,-0.026 -0.037,-0.045 -0.059,-0.066 2.902,-0.279 -0.521,-1.367 -4.347,-1.787 z" /></g><g
         id="g428"><path
           style="fill:#84000a"
           id="path430"
           d="m 582.006,751.153 c -0.017,-0.027 -0.028,-0.057 -0.048,-0.086 0.018,0.031 0.029,0.058 0.048,0.086 -0.026,0.007 -0.05,0.004 -0.074,0.013 -0.003,0 -0.007,0.003 -0.009,0.005 0.013,-0.035 0.022,-0.067 0.035,-0.104 -0.012,0.028 -0.023,0.07 -0.035,0.104 -0.184,0.031 -0.342,0.152 -0.383,0.402 -0.024,0.165 -0.03,0.292 -0.013,0.416 -0.134,0.814 -0.517,1.538 -0.754,2.29 -0.042,-0.298 -0.057,-0.319 -0.061,-0.185 10e-4,-0.06 -0.015,-0.533 0.002,0.634 0,0 0,0 -0.001,0.001 -0.012,0.007 -0.003,-0.44 -10e-4,-0.635 -0.002,0.148 -0.01,0.301 -0.015,0.525 -0.098,0.404 -0.127,0.809 -0.034,1.262 -0.046,1.67 -0.123,4.182 -0.218,7.286 -1.559,22.192 -2.18,66.688 0.088,71.189 2.454,-0.061 3.473,-7.341 3.693,-17.487 2.14,-20.721 2.918,-53.776 -1.609,-64.468 0.01,-0.031 0.021,-0.066 0.031,-0.099 0.058,-0.099 0.082,-0.219 0.064,-0.346 0.016,-0.088 0.034,-0.176 0.041,-0.265 0.029,-0.466 -0.398,-0.635 -0.747,-0.538 z" /></g><path
         style="fill:#84000a"
         id="path432"
         d="m 725.356,601.422 c 2.63,-1.005 3.25,-2.743 2.59,-4.864 -3.173,-2.214 -4.039,-0.591 -2.59,4.864 z" /><g
         id="g434"><path
           style="fill:#84000a"
           id="path436"
           d="m 478.091,381.258 c -1.07,0.433 -1.068,2.535 0.029,6.33 0.208,-0.044 0.383,-0.106 0.574,-0.161 -0.011,0.004 -0.018,0.008 -0.03,0.012 0.017,-0.004 0.03,-0.011 0.045,-0.017 2.731,-0.784 3.722,-2.498 2.931,-4.818 -0.439,-0.317 -0.841,-0.569 -1.216,-0.781 -0.73,-0.996 -1.747,-1.451 -2.333,-0.565 z" /></g><path
         style="fill:#84000a"
         id="path438"
         d="m 445.046,998.105 c -0.388,0.908 -0.715,2.619 -0.434,4.761 -0.079,-0.594 0.078,-2.386 0.434,-4.761 z" /><path
         style="fill:#84000a"
         id="path440"
         d="m 748.444,630.675 c -1.964,-6.178 0.436,-0.125 0,0 7.22,-1.621 5.887,-7.985 -4,-19.097 -7.663,1.618 -6.33,7.982 4,19.097 z" /><path
         style="fill:#84000a"
         id="path442"
         d="m 541.148,647.584 c 2.871,-3.895 3.119,-5.91 0.792,-8.392 -1.367,2.89 -3.24,5.401 -0.792,8.392 z" /><path
         style="fill:#84000a"
         id="path444"
         d="m 413.634,491.746 c 2.248,-0.494 4.501,-0.988 7.499,-1.648 -3.848,-2.348 -5.714,-1.999 -7.499,1.648 z" /><g
         id="g446"><path
           style="fill:#84000a"
           id="path448"
           d="m 545.854,651.893 c -0.045,-0.066 -0.083,-0.141 -0.13,-0.203 -0.052,-0.073 -0.111,-0.127 -0.18,-0.173 0.071,-0.046 0.15,-0.092 0.258,-0.139 -0.1,0.044 -0.179,0.087 -0.274,0.132 -0.376,-0.238 -0.888,-0.035 -0.894,0.451 -0.091,0.054 -0.158,0.104 -0.241,0.155 -1.612,-0.093 -2.71,2.199 -1.809,3.426 0.499,0.979 1.828,1.549 2.817,1.189 0.115,0.078 0.267,0.109 0.449,0.041 0.354,-0.125 0.574,-0.347 0.697,-0.624 0.257,0.026 0.531,-0.074 0.649,-0.381 0.015,-0.04 0.012,-0.085 0.022,-0.127 0.088,-0.033 0.171,-0.06 0.264,-0.098 -0.098,0.04 -0.18,0.063 -0.262,0.088 0.039,-0.151 0.061,-0.308 0.055,-0.467 0.069,0.098 0.138,0.216 0.207,0.379 -0.075,-0.18 -0.146,-0.336 -0.223,-0.498 -0.045,-0.441 -0.213,-0.882 -0.369,-1.266 -0.198,-0.485 -0.457,-0.956 -0.734,-1.411 -0.1,-0.314 -0.216,-0.638 -0.355,-0.99 0.098,0.245 0.098,0.408 0.053,0.516 z" /></g><path
         style="fill:#84000a"
         id="path450"
         d="m 538.353,656.71 c -5.06,14.655 -5.795,29.122 -7.242,44.147 4.109,-5.154 9.555,-37.803 7.242,-44.147 z" /><path
         style="fill:#84000a"
         id="path452"
         d="m 558.607,647.748 c -0.187,-0.047 -0.379,-0.009 -0.555,0.129 -0.278,0.212 -0.491,0.451 -0.679,0.71 -0.106,0.091 -0.195,0.178 -0.291,0.267 -1.615,-0.186 -2.658,2.62 -1.464,3.9 0.245,0.58 0.708,0.994 1.22,1.161 0.673,1.017 1.645,1.836 2.507,2.719 0.058,0.06 0.12,0.099 0.188,0.129 0.029,0.012 0.059,0.016 0.09,0.025 0.035,0.006 0.071,0.016 0.104,0.015 0.034,0.004 0.063,0.002 0.096,-0.002 0.048,-0.007 0.096,-0.017 0.145,-0.035 0.005,-0.005 0.016,-0.007 0.021,-0.012 0.171,-0.068 0.304,-0.21 0.351,-0.395 0.188,-0.153 0.353,-0.319 0.498,-0.49 0.082,-0.055 0.14,-0.124 0.181,-0.215 0.672,-0.951 0.756,-2.129 0.507,-3.309 0.077,-0.59 -0.271,-1.325 -0.71,-2 -0.463,-0.933 -1.058,-1.789 -1.654,-2.44 -0.17,-0.187 -0.372,-0.215 -0.555,-0.157 z" /><path
         style="fill:#84000a"
         id="path454"
         d="m 590.534,702.541 c 2.137,-3.305 1.906,-5.07 -0.966,-7.352 -2.56,3.49 -2.227,6.019 0.966,7.352 z" /><path
         style="fill:#84000a"
         id="path456"
         d="m 588.13,824.315 c 3.28,-2.714 10.301,-52.2 8.443,-58.067 -3.406,4.926 -10.139,50.58 -8.443,58.067 z" /><path
         style="fill:#84000a"
         id="path458"
         d="m 676.813,840.302 c 1.928,-2.425 0.207,-4.072 -1.103,-5.893 -1.501,2.824 -1.29,3.967 1.103,5.893 z" /><path
         style="fill:#84000a"
         id="path460"
         d="m 672.322,820.673 c -1.634,-6.711 -3.259,-13.422 -4.891,-20.136 1.632,6.714 -0.396,0.103 0,0 -7.604,1.533 -5.975,8.249 4.891,20.136 z" /><path
         style="fill:#84000a"
         id="path462"
         d="m 580.67,738.889 c -0.042,2.561 -0.086,5.118 -0.126,7.677 3.574,-3.034 3.586,-4.399 0.126,-7.677 z" /><path
         style="fill:#84000a"
         id="path464"
         d="m 609.751,622.103 c 0.107,1.22 6.409,33.44 5.416,14.032 -0.003,-0.012 -0.004,-0.017 -0.003,-0.03 -10e-4,-0.011 -0.003,-0.017 -0.003,-0.027 0.266,5.2 -6.872,-30.02 -5.41,-13.975 z" /><path
         style="fill:#84000a"
         id="path466"
         d="m 797.665,832.24 c 0.399,15.174 6.354,28.814 11.862,42.583 -3.121,-14.424 -3.838,-29.506 -11.862,-42.583 z" /><g
         id="g468"><polygon
           style="fill:#84000a"
           id="polygon470"
           points="405.61,480.994 405.61,480.994 405.608,480.994 " /><path
           style="fill:#84000a"
           id="path472"
           d="m 402.828,482.601 c 0.06,-0.045 0.123,-0.088 0.185,-0.131 -0.063,0.043 -0.125,0.088 -0.185,0.131 z" /><path
           style="fill:#84000a"
           id="path474"
           d="m 403.647,482.114 c 0.052,-0.032 0.105,-0.065 0.156,-0.097 -0.052,0.033 -0.102,0.064 -0.156,0.097 z" /><path
           style="fill:#84000a"
           id="path476"
           d="m 428.716,479.349 c -0.229,-0.162 -0.492,-0.305 -0.771,-0.438 -0.049,-0.023 -0.096,-0.05 -0.146,-0.073 -0.277,-0.124 -0.571,-0.238 -0.888,-0.341 -0.058,-0.02 -0.12,-0.035 -0.179,-0.056 -0.675,-0.203 -1.428,-0.36 -2.245,-0.47 -0.063,-0.01 -0.128,-0.018 -0.192,-0.025 -0.402,-0.051 -0.816,-0.09 -1.245,-0.12 -0.071,-0.004 -0.142,-0.009 -0.212,-0.012 -0.904,-0.054 -1.859,-0.062 -2.846,-0.026 -0.055,0.003 -0.11,0.003 -0.166,0.006 -0.492,0.02 -0.988,0.049 -1.492,0.09 -0.058,0.005 -0.113,0.01 -0.17,0.014 -1.05,0.088 -2.117,0.221 -3.188,0.39 -0.027,0.006 -0.055,0.009 -0.082,0.013 -0.533,0.088 -1.066,0.186 -1.599,0.293 -0.032,0.005 -0.065,0.012 -0.099,0.018 -1.09,0.222 -2.164,0.481 -3.198,0.779 -0.003,-0.001 -0.007,0 -0.008,0.002 -0.517,0.147 -1.021,0.306 -1.519,0.471 -0.02,0.008 -0.036,0.014 -0.056,0.021 -0.993,0.337 -2.298,0.323 -3.162,0.728 -10e-4,-0.002 -0.394,-0.485 -0.394,-0.485 l -0.031,-0.216 -0.006,-0.111 c 0,0 0,0 0.004,0 0.023,0 -0.816,0.768 -3.05,2.729 3.558,-0.327 7.294,-0.28 10.815,-0.624 5.495,-0.037 11.002,-0.684 16.125,-2.557 z m -25.703,3.121 c -0.062,0.043 -0.125,0.086 -0.185,0.131 0.06,-0.043 0.122,-0.088 0.185,-0.131 z m 0.791,-0.453 c -0.051,0.031 -0.104,0.064 -0.156,0.097 0.053,-0.033 0.103,-0.064 0.156,-0.097 z" /></g><g
         id="g478"><path
           style="fill:#84000a"
           id="path480"
           d="m 419.524,459.008 c -0.01,-0.044 -0.017,-0.081 -0.028,-0.128 0.01,0.041 0.009,0.078 0.019,0.123 0.004,0 0.007,0.001 0.009,0.005 z" /><path
           style="fill:#84000a"
           id="path482"
           d="m 415.981,461.935 c 0.004,-0.07 0.008,-0.139 0.027,-0.203 -0.046,0.039 -0.054,0.107 -0.027,0.203 z" /><path
           style="fill:#84000a"
           id="path484"
           d="m 419.497,458.875 c 0,0 0,0.002 -0.001,0.006 0.012,0.047 0.019,0.084 0.028,0.128 -0.011,-0.049 -0.022,-0.107 -0.027,-0.134 z" /><path
           style="fill:#84000a"
           id="path486"
           d="m 419.524,459.008 c -0.002,-0.004 0.586,-0.079 0.584,-0.081 -0.01,-0.043 0.592,-0.167 0.572,-0.198 -0.002,-0.002 -0.002,-0.003 -0.002,-0.004 -2.672,-0.513 -2.469,-0.909 -3.002,-0.622 -2.41,-0.477 -4.619,0.297 -1.406,3.934 0.013,0.117 -0.101,0.257 -0.039,0.393 0.123,0.257 0.324,0.334 0.578,0.303 0.186,-0.02 0.288,-0.086 0.433,-0.16 5.736,-0.544 4.624,-2.4 2.282,-3.565 z m -3.543,2.927 c -0.027,-0.096 -0.02,-0.164 0.027,-0.203 -0.019,0.064 -0.023,0.133 -0.027,0.203 z" /></g><path
         style="fill:#84000a"
         id="path488"
         d="m 376.775,435.2 c 0.601,-1.275 0.431,-2.87 -0.476,-2.188 -0.313,0.235 -0.709,0.739 -1.191,1.616 -0.312,0.944 -0.406,1.567 -0.361,1.941 0.139,1.128 1.535,-0.003 2.028,-1.369 z" /></g><g
       id="g490"><path
         style="fill:#84000a"
         id="path492"
         d="m 546.605,122.698 c -0.243,-0.234 -0.667,-0.269 -0.888,0.1 -0.145,0.242 -0.242,0.498 -0.329,0.759 -0.056,0.085 -0.085,0.174 -0.095,0.264 -0.134,0.345 -0.25,0.669 -0.338,0.956 -0.143,0.245 -0.291,0.53 -0.444,0.84 -0.127,0.196 -0.226,0.397 -0.278,0.601 -0.044,0.094 -0.08,0.17 -0.126,0.269 0.04,-0.088 0.072,-0.136 0.106,-0.198 -0.013,0.067 -0.016,0.134 -0.016,0.201 -0.031,-10e-4 -0.056,0.008 -0.091,-0.002 0.034,0.01 0.062,0.008 0.093,0.015 0.006,0.24 0.111,0.475 0.381,0.681 0.27,0.209 0.535,0.108 0.699,-0.099 0.08,-0.025 0.162,-0.066 0.237,-0.142 0.01,-0.01 0.015,-0.02 0.024,-0.03 0.582,-0.284 1.26,-1.098 1.408,-1.97 0.125,-0.394 0.152,-0.777 0.105,-1.093 0.043,-0.144 0.023,-0.302 -0.038,-0.439 -0.017,-0.117 -0.044,-0.234 -0.088,-0.354 -0.062,-0.179 -0.182,-0.295 -0.322,-0.359 z" /></g><path
       style="clip-rule:evenodd;fill:#84000a;fill-rule:evenodd"
       id="path494"
       d="m 727.845,638.537 c 3.166,-8.537 -4.344,-1.575 0,0 0.43,-1.164 -0.576,-0.208 0,0 z" /><path
       style="clip-rule:evenodd;fill:#84000a;fill-rule:evenodd"
       id="path496"
       d="m 814.942,590.21 c -1.042,-8.935 -4.489,0.949 0,0 -0.143,-1.23 -0.607,0.131 0,0 z" /><path
       style="clip-rule:evenodd;fill:#84000a;fill-rule:evenodd"
       id="path498"
       d="m 450.442,424.398 c -0.205,-0.151 -0.486,-0.191 -0.724,0.035 -0.432,0.41 -0.022,1.018 0.442,1.004 2.528,3.134 5.167,-2.779 0.282,-1.039 z" /><path
       style="clip-rule:evenodd;fill:#84000a;fill-rule:evenodd"
       id="path500"
       d="m 709.881,672.078 c -1.159,-14.94 -3.2,0.174 0,0 -0.159,-2.043 -0.559,0.031 0,0 z" /><path
       style="fill:#84000a"
       id="path502"
       d="m 487.287,406.122 c -0.362,0.344 -0.414,0.688 -0.302,0.915 -3.568,6.313 2.701,2.435 1.328,-0.331 0.447,-0.709 -0.269,-1.302 -1.026,-0.584 z" /><path
       style="fill:#84000a"
       id="path504"
       d="m 459.425,377.798 c -0.023,-0.004 -0.039,-0.017 -0.065,-0.019 -0.445,-0.036 -0.884,0.074 -1.16,0.319 -0.585,-0.282 -1.103,0.634 -0.517,1.047 0.139,0.096 0.327,0.148 0.438,0.28 0.023,0.023 0.048,0.037 0.074,0.059 4.333,9.911 10.819,-4.228 1.23,-1.686 z" /><g
       id="g506"><path
         style="fill:#84000a"
         id="path508"
         d="m 434.705,403.147 c -0.167,0.589 0.925,0.541 0.925,0.541 l -0.125,-0.133 c 1.412,-0.871 1.955,-1.099 2.564,-1.507 0.104,0.021 0.313,-0.088 0.42,-0.139 0.055,-0.025 0.166,-0.104 0.219,-0.152 0.01,-0.008 0.036,-0.043 0.045,-0.051 0.039,-0.025 0.092,-0.051 0.127,-0.088 0.172,-0.171 0.204,-0.268 0.316,-0.471 4.051,-3.866 -9.017,-4.096 -4.491,2 z m 3.959,-1.431 0.071,-0.092 -0.071,0.092 z" /></g><g
       id="g510"><path
         style="fill:#84000a"
         id="path512"
         d="m 542.461,790.287 c -0.047,-0.027 -0.095,-0.054 -0.144,-0.087 -0.256,-0.179 -0.504,-0.105 -0.668,0.062 -0.009,0 -0.02,0 -0.027,0 0.008,0 0.017,0.002 0.027,0 -0.007,0.007 -0.012,0.012 -0.016,0.018 -0.004,-0.006 -0.008,-0.011 -0.012,-0.018 0.004,0.007 0.008,0.012 0.012,0.018 -0.223,0.244 -0.278,0.679 0.076,0.928 0.276,0.193 0.575,0.338 0.892,0.434 6.66,8.554 13.368,-0.844 -0.14,-1.355 z m 0.658,0.26 c -0.183,-0.032 -0.356,-0.089 -0.524,-0.178 0.207,0.05 0.383,0.108 0.524,0.178 z" /></g><path
       style="fill:#84000a"
       id="path514"
       d="m 556.63,748.121 c 0.045,0.197 0.048,0.4 0.085,0.602 0.049,0.239 0.206,0.371 0.39,0.418 0.432,0.226 1.08,-0.237 0.792,-0.79 -0.022,-0.039 -0.043,-0.079 -0.063,-0.116 -10e-4,-0.005 -0.007,-0.009 -0.007,-0.015 -0.015,-0.122 -0.025,-0.245 -0.055,-0.365 -0.172,-0.742 -1.312,-0.471 -1.142,0.266 z" /><g
       id="g516"><path
         style="fill:#84000a"
         id="path518"
         d="m 332.677,444.638 c 0.203,-0.129 0.352,-0.312 0.46,-0.523 0.014,-0.016 0.024,-0.027 0.035,-0.04 -0.014,0.015 -0.021,0.021 -0.034,0.036 0.01,-0.018 0.018,-0.036 0.027,-0.055 0,0.008 0.004,0.012 0.007,0.019 -0.004,-0.007 -0.005,-0.013 -0.006,-0.021 0.017,-0.037 0.038,-0.072 0.054,-0.11 0.139,-0.333 -0.049,-0.575 -0.313,-0.669 -5.178,-14.705 -14.029,16.874 -0.23,1.363 z" /></g><g
       id="g520"><path
         style="fill:#84000a"
         id="path522"
         d="m 338.465,332.342 c 0.038,0.153 0.089,0.305 0.159,0.46 0.04,0.085 0.094,0.148 0.149,0.197 0.207,0.325 0.739,0.458 1.008,0.03 0.011,-0.014 0.022,-0.027 0.031,-0.041 10.117,-6.9 -4.391,-4.363 -1.347,-0.646 z m 1.373,0.613 c 0.007,-0.009 0.013,-0.016 0.021,-0.025 0.036,-0.037 0.052,-0.079 0.076,-0.12 0.031,0.011 0.007,0.055 -0.097,0.145 z" /></g><path
       style="fill:#84000a"
       id="path524"
       d="m 505.532,137.604 c -0.066,0.198 -0.135,0.395 -0.188,0.6 -0.167,0.686 0.668,0.976 1.065,0.468 0.083,-0.105 0.198,-0.184 0.307,-0.26 20.298,-6.35 -3.221,-20.866 -1.184,-0.808 z" /><g
       id="g526"><path
         style="fill:#84000a"
         id="path528"
         d="m 498.869,308.831 c -0.134,0.011 -0.242,0.06 -0.331,0.138 -0.104,0.093 -0.175,0.209 -0.208,0.34 -0.028,-0.063 -0.058,-0.123 -0.084,-0.203 0.029,0.081 0.054,0.147 0.081,0.228 -0.043,0.204 0.01,0.415 0.192,0.538 8.07,22.858 10.664,-5.641 0.35,-1.041 z" /></g><g
       id="g530"><path
         style="fill:#84000a"
         id="path532"
         d="m 509.124,265.605 c 0.119,0.079 0.125,0.174 0.082,0.266 -0.098,-0.035 -0.219,-0.03 -0.345,0.001 0.062,-0.074 0.146,-0.159 0.263,-0.267 -0.105,0.096 -0.192,0.182 -0.291,0.275 -0.156,0.045 -0.32,0.123 -0.49,0.285 l 0.092,0.097 c -9.218,8.957 7.382,3.9 0.689,-0.657 z" /></g><g
       id="g534"><path
         style="fill:#84000a"
         id="path536"
         d="m 423.461,518.025 c -0.019,0.018 -0.04,0.027 -0.056,0.049 -0.427,0.533 -0.536,1.12 -0.451,1.701 -0.013,0.046 -0.024,0.088 -0.041,0.135 0.017,-0.051 0.028,-0.085 0.042,-0.135 0.012,0.088 0.036,0.174 0.06,0.26 -0.041,0.027 -0.076,-0.002 -0.102,-0.125 0.234,1.271 0.471,2.284 0.705,3.089 -0.01,-0.009 -0.014,-0.009 -0.024,-0.019 -0.062,-0.043 -0.106,-0.074 -0.16,-0.113 l 0.185,0.132 c 3.778,12.984 7.414,-30.494 -0.158,-4.974 z" /></g><g
       id="g538"><path
         style="fill:#84000a"
         id="path540"
         d="m 304.906,530.98 c 0.015,-0.053 0.028,-0.095 0.04,-0.145 -0.012,0.041 -0.035,0.068 -0.051,0.102 -0.011,-0.051 -0.031,-0.098 -0.061,-0.143 0.037,0.014 0.072,0.025 0.111,0.041 -0.041,-0.018 -0.074,-0.027 -0.113,-0.041 -0.063,-0.104 -0.168,-0.188 -0.326,-0.225 -0.742,-0.175 -1.471,-0.392 -2.199,-0.609 -0.143,-0.044 -0.26,-0.03 -0.364,0.006 -14.194,-2.847 -2.292,21.523 2.831,1.514 0.112,-0.144 0.163,-0.328 0.132,-0.5 z" /></g><g
       id="g542"><path
         style="fill:#84000a"
         id="path544"
         d="m 317.591,570.041 c -0.039,0.07 -0.082,0.132 -0.117,0.2 -0.153,0.305 -0.027,0.589 0.182,0.756 0.012,0.076 0.016,0.146 0.027,0.224 -0.015,-0.078 -0.016,-0.147 -0.02,-0.219 0.052,0.043 0.109,0.074 0.174,0.098 -0.053,0.037 -0.097,0.08 -0.154,0.121 0.058,-0.041 0.104,-0.078 0.16,-0.117 0.229,0.081 0.49,0.035 0.636,-0.252 0.081,-0.156 0.175,-0.301 0.265,-0.445 6.607,-5.371 -1.091,-5.951 -1.153,-0.366 z" /></g><g
       id="g546"><path
         style="fill:#84000a"
         id="path548"
         d="m 377.529,491.736 c 0.146,-0.021 0.179,-0.101 0.283,-0.256 0.015,-0.021 -0.03,-0.045 -0.019,-0.066 0.055,-0.041 0.077,-0.078 0.135,-0.119 -0.06,0.043 -0.112,0.059 -0.16,0.092 0.089,-0.145 0.16,-0.295 0.221,-0.446 -0.027,0.118 -0.049,0.216 -0.085,0.354 0.032,-0.136 0.279,-0.258 0.311,-0.387 0.177,-0.455 -0.458,-0.939 0.542,-1.434 0,-0.004 0,-0.008 0,-0.012 3,-17.57 -24.864,19.922 -1.228,2.274 z" /></g><g
       id="g550"><path
         style="fill:#84000a"
         id="path552"
         d="m 210.098,535.085 c -0.002,-0.023 -0.007,-0.043 -0.014,-0.063 0.011,0.017 0.019,0.026 0.027,0.044 -0.013,-0.027 -0.025,-0.049 -0.037,-0.074 -0.017,-0.053 -0.042,-0.102 -0.072,-0.146 -7.652,-16.559 -10.199,14.488 -0.485,1.056 0.041,-0.025 0.085,-0.036 0.122,-0.073 l 0.286,-0.268 c 0.154,-0.146 0.196,-0.318 0.174,-0.475 0.004,-0.008 0.008,-0.014 0.011,-0.02 -0.003,0.006 -0.007,0.012 -0.012,0.019 z" /></g><g
       id="g554"><path
         style="fill:#84000a"
         id="path556"
         d="m 301.319,596.806 c -0.084,-0.032 -0.102,-0.099 -0.084,-0.181 0.079,0.01 0.156,0.005 0.234,-0.011 -0.046,0.061 -0.091,0.121 -0.15,0.192 0.053,-0.067 0.102,-0.127 0.155,-0.194 0.172,-0.043 0.327,-0.155 0.396,-0.376 0.021,-0.027 0.037,-0.055 0.059,-0.079 0.097,-0.097 0.135,-0.205 0.155,-0.314 12.52,-16.029 -9.46,-2.267 -0.765,0.963 z" /></g><g
       id="g558"><path
         style="fill:#84000a"
         id="path560"
         d="m 353.49,602.939 c 0.11,-0.143 0.201,-0.243 0.278,-0.321 -0.002,0.002 -0.006,0.011 -0.01,0.014 -0.145,0.123 -0.222,0.308 -0.229,0.485 -0.012,-0.054 -0.028,-0.104 -0.039,-0.178 0.019,0.109 0.035,0.206 0.052,0.312 0.002,0.014 0.003,0.029 0.007,0.042 3.624,22.827 15.193,-20.013 -0.059,-0.354 z" /></g><path
       style="fill:#84000a"
       id="path562"
       d="m 399.888,681.892 c -0.092,0.187 -0.199,0.36 -0.29,0.545 -0.333,0.673 0.669,1.29 1.005,0.607 0.091,-0.188 0.199,-0.358 0.29,-0.546 0.333,-0.673 -0.669,-1.289 -1.005,-0.606 z" /><path
       style="fill:#84000a"
       id="path564"
       d="m 617.18,568.296 c -0.069,0.668 0.022,1.338 0.019,2.007 -0.002,0.096 0.016,0.18 0.049,0.253 0.008,5.411 6.138,6.638 1.098,-1.713 0.003,-0.172 -0.008,-0.345 0.01,-0.52 0.079,-0.753 -1.095,-0.777 -1.176,-0.027 z" /><g
       id="g566"><path
         style="fill:#84000a"
         id="path568"
         d="m 658.199,563.274 c -0.003,-10e-4 -0.008,-10e-4 -0.013,-10e-4 -0.391,0.092 -0.704,0.279 -0.893,0.527 -0.048,0.029 -0.094,0.054 -0.143,0.084 0.048,-0.028 0.086,-0.04 0.129,-0.064 -0.044,0.059 -0.078,0.122 -0.107,0.188 -0.005,-0.045 -0.015,-0.075 -0.021,-0.123 0.005,0.047 0.013,0.089 0.017,0.134 -0.103,0.257 -0.077,0.56 0.121,0.888 3.468,24.26 18.125,-11.204 0.91,-1.633 z" /></g><g
       id="g570"><path
         style="fill:#84000a"
         id="path572"
         d="m 677.175,550.586 c -10e-4,-0.01 0.003,-0.019 -10e-4,-0.03 -0.041,-0.174 -0.062,-0.34 -0.114,-0.494 0.055,0.093 0.104,0.248 0.134,0.51 -1.919,-16.242 -8.345,6.9 -0.746,0.663 0.372,0.085 0.817,-0.176 0.729,-0.646 0.005,-0.007 0.011,-0.012 0.018,-0.018 -0.008,0.007 -0.012,0.011 -0.02,0.015 z" /></g><g
       id="g574"><path
         style="fill:#84000a"
         id="path576"
         d="m 630.558,611.066 c 0.361,0.214 0.989,0.109 0.938,-0.437 -0.05,-0.552 -0.189,-1.062 -0.367,-1.568 -1.329,-13.04 -6.506,2.246 -0.571,2.005 z" /></g><g
       id="g578"><path
         style="fill:#84000a"
         id="path580"
         d="m 670.496,492.209 c -0.208,-0.185 -0.599,-0.185 -1.005,0.202 -0.475,0.449 -0.427,0.9 -0.151,1.085 -2.819,27.304 11.103,-3.669 1.156,-1.287 z" /></g><g
       id="g582"><path
         style="fill:#84000a"
         id="path584"
         d="m 704.297,455.135 c -0.105,0.132 -0.394,0.284 -0.347,0.46 0.008,0.024 -0.193,0.036 -0.193,0.059 0,0.004 0,0.01 0,0.012 0,-0.002 0.24,-0.013 0.24,-0.018 -10e-4,0.006 0.13,-0.004 0.133,10e-4 -10e-4,-0.003 0.053,-0.002 0.047,-0.004 0.006,0.002 0.034,0.005 0.035,0.007 0.638,0.672 1.021,1.725 2.032,1.704 11.369,7.665 3.496,-31.405 -1.947,-2.221 z" /></g><path
       style="fill:#84000a"
       id="path586"
       d="m 758.844,399.846 c 0.694,0.162 1.417,0.282 2.077,0.078 0.168,0.038 0.313,0.009 0.431,-0.065 0.021,-10e-4 0.036,0.011 0.057,0.007 0.394,-0.095 0.68,-0.268 0.975,-0.543 0.137,-0.127 0.232,-0.371 0.167,-0.56 -0.082,-0.234 -0.177,-0.464 -0.258,-0.7 -0.003,-0.011 -0.013,-0.017 -0.018,-0.026 0.067,-0.528 0.063,-1.069 0.076,-1.485 0.007,-0.329 -0.207,-0.511 -0.455,-0.563 -1.082,-8.818 -10.385,4.086 -3.052,3.857 z" /><path
       style="fill:#84000a"
       id="path588"
       d="m 735.895,452.972 c -0.213,0.026 -0.422,0.153 -0.507,0.394 -0.264,0.724 -0.495,1.544 -0.354,2.284 -5.801,30.71 25.446,-16.527 0.861,-2.678 z" /><g
       id="g590"><polygon
         style="fill:#84000a"
         id="polygon592"
         points="764.034,290.616 764.034,290.62 764.037,290.617 " /><path
         style="fill:#84000a"
         id="path594"
         d="m 763.446,289.696 c -0.015,0.06 -0.035,0.119 -0.049,0.18 -0.104,0.451 0.282,0.75 0.636,0.741 0,10e-4 10e-4,0.002 10e-4,0.003 0,0 0,-10e-4 0,-0.004 0,0.001 0,0.002 0.003,0.001 0,0 0,0.002 0,0.002 0,0 0,0 10e-4,-0.002 0.216,-0.007 0.422,-0.13 0.486,-0.413 0.017,-0.07 0.039,-0.137 0.056,-0.205 4.574,-5.403 -2.184,-3.249 -1.134,-0.303 z" /></g><g
       id="g596"><path
         style="fill:#84000a"
         id="path598"
         d="m 733.407,304.786 c -0.019,-0.075 -0.021,-0.152 -0.027,-0.232 -0.076,0.256 -0.051,0.308 0.027,0.232 z" /><path
         style="fill:#84000a"
         id="path600"
         d="m 735.208,302.934 c -0.12,-0.292 -0.444,-0.517 -0.812,-0.341 -0.693,0.33 -1.071,1.162 -1.023,1.904 -6.727,16.758 16.273,-4.804 1.835,-1.563 z m -1.828,1.62 c 0.007,0.08 0.009,0.157 0.027,0.232 -0.078,0.076 -0.103,0.024 -0.027,-0.232 z" /></g><path
       style="fill:#84000a"
       id="path602"
       d="m 453.372,517.169 c 12.753,-0.146 10.945,8.993 6.241,16.934 -5.521,9.324 -6.9,17.931 -10.79,27.959 -2.036,5.251 -8.654,8.001 -9.939,13.535 -0.816,3.518 -0.566,1.779 -2.36,5.486 0.905,-1.869 -16.448,-14.321 -24.101,-8.514 -7.771,5.898 4.771,35.187 8.906,33.101 15.884,-8.012 23.46,-26.187 36.131,-37.555 9.696,-8.704 36.548,-8.872 23.325,8.333 7.692,-2.174 13.829,2.439 11.054,10.697 -0.33,0.99 -16.143,10.666 -18.271,12.531 -4.328,3.786 3.623,9.373 -1.467,11.785 2.061,-0.977 -9.297,12.979 -9.189,11.798 -2.189,10.999 -13.459,22.237 11.97,13.264 3.385,-2.758 6.994,-5.18 10.83,-7.267 3.099,-0.889 0.362,9.159 2.167,10.06 5.164,-7.327 12.604,-23.287 22.18,-25.398 12.6,-2.777 -8.162,51.989 -4.838,53.384 1.367,-2.938 12.702,-47.734 18.871,-38.362 5.184,-7.714 3.201,-17.255 9.169,-25.462 10.735,-14.767 12.677,6.484 13.29,17.361 4.488,-0.84 5.199,-16.025 10.988,-12.69 0.374,-0.493 -0.447,-13.5 0.143,-16.219 2.894,-13.334 9.379,-10.021 15.423,0.865 6.027,-9.499 12.423,10.976 4.495,14.892 -18.116,8.922 15.89,9.254 3.568,23.495 -1.228,-1.271 -7.576,-15.078 -11.383,-8.281 -5.334,9.524 -6.766,21.091 -7.365,34.45 -0.597,13.218 -11.017,21.93 -10.403,35.938 0.608,13.937 2.472,25.606 4.224,39.215 -4.325,0.368 4.589,-34.095 8.582,-37.655 13.973,-12.471 14.763,36.309 16.629,41.521 2.193,-12.617 -3.402,-42.687 3.088,-52.259 3.819,-5.636 18.961,-32.622 9.62,-32.747 0.892,-11.027 5.993,-20.067 6.249,-31.748 0.092,-4.259 -1.643,-10.231 0.771,-14.15 2.111,-3.43 4.596,2.995 6.77,2.172 -0.559,-3.875 -1.249,-5.463 -3.945,-9.897 4.835,-11.082 5.023,-20.928 9.269,-32.463 2.234,-6.066 4.73,-10.531 12.133,-7.734 4.937,-5.125 1.666,-11.771 0.77,-17.547 -2.659,-17.165 31.761,-64.919 28.18,-27.258 6.264,-2.407 4.563,5.396 8.651,7.111 18.89,-14.32 -27.186,-51.443 5.936,-67.908 1.371,4.889 -3.533,25.856 -0.061,28.627 10.201,-11.305 -11.103,-77.606 16.4,-24.475 5.4,10.43 5.347,17.885 3.867,29.279 -1.815,13.955 7.787,3.839 13.579,10.341 0.451,-4.397 8.749,-29.319 5.638,-31.12 -10.426,-6.043 -11.647,3.743 -13.032,-14.096 -0.979,-12.624 -15.815,-14.357 -13.466,-30.854 1.938,-13.606 5.895,-24.851 8.948,-38.165 5.453,4.094 13.264,-2.737 8.315,-7.517 -2.246,-2.169 -7.26,3.339 -8.926,4.209 -3.305,-9.175 1.941,-19.596 3.261,-28.615 0.852,-5.82 -1.179,-16.228 -1.323,-22.498 -0.185,-8.122 -1.576,-15.322 -1.076,-23.876 -0.087,-4.522 0.902,-8.791 2.965,-12.81 -2.096,-2.698 -3.903,-5.577 -5.417,-8.643 -1.559,-9.189 -2.196,-12.649 8.001,-14.608 10.411,-2 16.584,-11.638 26.239,-15.21 21.703,-8.028 31.046,18.022 35.476,33.516 5.063,0.213 -1.17,-15.91 -1.785,-17.785 -1.327,-4.033 -4.894,-10.461 -4.252,-14.749 0.447,-2.986 6.855,-5.439 5.166,-8.866 -2.18,0.069 -15.557,2.799 -15.545,-1.945 0.007,-2.546 12.496,-12.088 14.437,-15.36 4.384,-7.396 8.727,-15.739 11.709,-23.82 7.308,-19.808 2.139,-40.455 -12.61,-55.244 0.244,0.243 4.435,4.611 2.069,2.154 -6.111,-6.357 3.755,3.902 0,0 -21.444,-22.307 -54.888,-23.652 -73.724,1.043 -11.271,14.77 -20.602,28.676 -13.667,45.214 6.319,15.073 -39.581,4.813 -43.708,4.495 4.068,13.796 -21.323,46.78 -33.188,53.248 -11.026,6.012 -9.229,0.941 -17.008,-2.364 -1.572,-0.669 -12.169,12.058 -17.38,13.483 -12.961,3.545 -25.145,9.79 -37.494,14.986 -4.213,1.772 -19.748,-1.799 -17.528,4.529 5.021,14.332 -39.958,9.563 -36.226,22.295 1.008,3.439 47.275,-19.789 51.814,-21.91 14.137,-6.603 18.945,10.226 27.666,-5.31 11.953,10.875 -7.037,14.052 -13.414,19.818 28.146,1.915 -24.269,27.091 -25.881,28.649 10.403,3.958 16.916,-6.777 21.521,10.53 2.437,9.139 -4.867,25.452 -8.735,33.801 -5.998,12.949 12.935,19.612 4.175,34.951 -4.448,7.783 -30.273,17.752 -26.256,28.102 8.612,22.228 -24.735,19.777 -34.688,25.643 -1.902,1.119 -10.671,-4.227 -10.152,1.373 0.84,9.133 -17.387,13.234 -13.021,21.559 3.647,6.948 26.458,5.228 28.791,13.25 0.161,0.561 -12.541,9.668 -14.255,9.465 2.448,-8.4 -6.548,-5.051 -5.073,-12.066 -9.197,2.494 -7.252,-3.107 -14.818,3.303 -6.527,-2.593 -11.528,11.399 -8.048,14.852 l 26.148,4.418 z" /></g><g
     transform="translate(-1.2743826e-4,-1.4613692e-5)"
     id="king"><path
       style="clip-rule:evenodd;fill:#ffffff;fill-rule:evenodd"
       id="path605"
       d="m 507.78,354.469 c 0,0 -4.412,6.666 -8.689,1.971 -4.277,-4.695 -2.106,-9.46 2.191,-10.245 0,0 -5.313,-3.883 -4.207,-11.745 l 10.445,-2.719 -4.854,-3.142 -0.91,-4.221 17.693,-14.732 3.32,10.587 3.768,-12.932 6.553,1.746 c 0,0 -0.467,-2.957 1.479,-4.506 1.945,-1.547 4.098,-0.832 4.098,-0.832 0,0 -16.508,-24.964 -12.545,-31.522 3.964,-6.559 10.568,-6.383 51.563,-25.144 0,0 -1.746,-1.992 -0.508,-4.127 1.239,-2.135 4.991,-1.045 4.991,-1.045 l 3.86,-3.419 c 0,0 -3.22,-3.813 -3.129,-7.8 0.091,-3.986 5.602,-3.645 5.602,-3.645 0,0 -4.661,-5.311 -0.244,-9.76 4.418,-4.448 11.732,-5.054 23.638,6.701 0,0 34.73,-23.077 56.656,-73.414 0,0 -3.533,-6.524 -0.435,-12.547 1.721,-3.289 4.832,-3.509 5.771,-3.921 0.94,-0.414 6.52,-2.164 3.68,-8.947 -2.84,-6.783 -2.702,-33.014 18.307,-40.745 0,0 8.545,-18.458 24.33,-20.558 15.786,-2.101 34.02,4.706 60.607,25.81 26.588,21.105 47.877,61.218 36.981,82.5 -4.661,8.188 -14.768,10.354 -14.768,10.354 0,0 -1.285,10.879 -14.886,17.605 -13.6,6.726 -32.188,4.583 -41.679,2.78 0,0 -4.51,8.436 -10.07,9.664 -5.562,1.227 -10.585,-1.639 -10.585,-1.639 0,0 -47.9,11.765 -82.02,49.329 0,0 14.668,18.415 4.842,24.338 -7.517,5.516 -11.39,-0.455 -11.39,-0.455 0,0 -1.108,4.275 -3.788,4.913 -2.682,0.638 -7.807,-4.045 -7.807,-4.045 l -4.489,2.956 c 0,0 0.943,3.174 -1.449,4.828 -2.392,1.655 -3.475,-0.919 -3.475,-0.919 l -28.204,45.174 c 0,0 -2.395,6.612 -15.011,0.595 -11.66,-6.952 -18.635,-15.442 -18.635,-15.442 0,0 0.897,3.374 -0.925,4.845 -1.822,1.472 -5.079,0.074 -5.079,0.074 l 1.004,7.409 -10.229,2.243 7.882,4.169 -18.438,16.56 -4.141,-8.881 -5.799,12.141 c 0.004,-0.002 -3.093,1.065 -10.873,-6.243 z" /></g></svg>