<?xml version="1.0" encoding="utf-8"?>
<!-- Generator: Adobe Illustrator 16.0.0, SVG Export Plug-In . SVG Version: 6.00 Build 0)  -->
<!DOCTYPE svg PUBLIC "-//W3C//DTD SVG 1.1//EN" "http://www.w3.org/Graphics/SVG/1.1/DTD/svg11.dtd">
<svg version="1.1" id="Layer_1" xmlns="http://www.w3.org/2000/svg" xmlns:xlink="http://www.w3.org/1999/xlink" x="0px" y="0px"
	 width="57.142px" height="58.896px" viewBox="0 0 57.142 58.896" enable-background="new 0 0 57.142 58.896" xml:space="preserve">
<g>
	<path d="M54.005,20.376c2.063,2.064,3.097,4.824,3.097,8.28c0,1.584-0.253,3.06-0.757,4.428s-1.151,2.64-1.944,3.816
		c-0.791,1.177-1.68,2.268-2.664,3.276c-0.984,1.008-1.932,1.969-2.844,2.88l-0.936,0.936c-0.961,0.96-1.524,1.752-1.692,2.376
		c-0.169,0.623-0.156,1.055,0.036,1.296c0.816,0.911,1.428,1.944,1.836,3.096c0.407,1.152,0.636,2.04,0.684,2.664
		c0.048,0.624,0.024,1.116-0.071,1.476c-0.097,0.36-0.265,0.659-0.505,0.9c-0.575,0.576-1.572,1.055-2.987,1.44
		c-1.417,0.384-3.036,0.695-4.86,0.936c-1.824,0.24-3.769,0.42-5.832,0.54c-2.064,0.119-4.057,0.18-5.976,0.18
		c-1.921,0-3.924-0.061-6.012-0.18c-2.088-0.12-4.057-0.3-5.904-0.54c-1.848-0.241-3.468-0.552-4.86-0.936
		c-1.393-0.385-2.376-0.864-2.952-1.44c-0.241-0.241-0.396-0.48-0.468-0.72c-0.072-0.241-0.108-0.432-0.108-0.576
		c0-1.296,0.216-2.532,0.648-3.708c0.432-1.177,1.055-2.221,1.872-3.132c0.24-0.241,0.276-0.673,0.108-1.296
		c-0.169-0.625-0.709-1.417-1.62-2.376l-1.008-0.936c-0.912-0.912-1.86-1.872-2.844-2.88c-0.984-1.008-1.872-2.099-2.664-3.276
		c-0.792-1.176-1.452-2.448-1.98-3.816c-0.529-1.368-0.792-2.844-0.792-4.428c0-3.456,1.044-6.215,3.132-8.28
		c2.088-2.063,4.86-3.096,8.316-3.096c0.912,0,1.919,0.144,3.024,0.432c1.104,0.288,2.255,0.732,3.456,1.332
		c1.199,0.601,2.376,1.357,3.528,2.268c1.152,0.912,2.207,2.016,3.168,3.312c-0.336-1.152-0.637-2.292-0.9-3.42
		c-0.265-1.127-0.432-2.184-0.504-3.168c-0.072-0.983-0.036-1.896,0.108-2.736c0.144-0.839,0.432-1.548,0.864-2.124
		c0.335-0.576,0.803-1.019,1.405-1.332c0.6-0.312,1.283-0.515,2.051-0.612V6.48h-3.527V4.752h3.527V0h1.729v4.752h3.744V6.48h-3.744
		v4.752c1.631,0.192,2.855,0.84,3.672,1.944c0.432,0.576,0.707,1.285,0.828,2.124c0.119,0.84,0.145,1.753,0.072,2.736
		c-0.072,0.984-0.241,2.041-0.504,3.168c-0.265,1.128-0.541,2.268-0.828,3.42c0.959-1.296,2.016-2.4,3.168-3.312
		c1.152-0.911,2.304-1.667,3.455-2.268c1.152-0.6,2.293-1.044,3.421-1.332c1.127-0.288,2.147-0.432,3.06-0.432
		C49.181,17.28,51.94,18.313,54.005,20.376z M2.489,32.544c0.456,1.2,1.055,2.34,1.8,3.42c0.744,1.08,1.571,2.101,2.484,3.06
		c0.911,0.961,1.824,1.897,2.736,2.808l1.44,1.44c0.864-0.624,1.788-1.127,2.772-1.512c0.983-0.383,2.135-0.695,3.456-0.936
		c1.32-0.239,2.832-0.407,4.536-0.504c1.703-0.096,3.684-0.144,5.939-0.144c0-3.744-0.588-6.948-1.764-9.612
		c-1.177-2.664-2.604-4.848-4.284-6.552c-1.681-1.703-3.456-2.939-5.328-3.708c-1.872-0.767-3.481-1.152-4.824-1.152
		c-2.977,0-5.328,0.84-7.056,2.52c-1.728,1.681-2.592,4.008-2.592,6.984C1.805,30.049,2.032,31.345,2.489,32.544z M23.441,30.348
		c-0.936-2.135-2.088-3.888-3.456-5.256c-1.368-1.368-2.808-2.363-4.32-2.988c-1.512-0.624-2.82-0.936-3.924-0.936
		c-2.448,0-4.356,0.684-5.724,2.052c-1.368,1.368-2.052,3.252-2.052,5.652c0,1.104,0.191,2.148,0.576,3.132
		c0.383,0.984,0.875,1.92,1.476,2.808c0.6,0.889,1.271,1.728,2.016,2.52c0.744,0.792,1.476,1.548,2.196,2.268l1.08,1.152
		c0.671-0.479,1.415-0.888,2.232-1.224c0.815-0.335,1.764-0.6,2.844-0.792c1.08-0.191,2.304-0.335,3.672-0.432
		c1.368-0.095,2.963-0.144,4.788-0.144C24.845,35.089,24.377,32.484,23.441,30.348z M36.725,52.02
		c2.256,0.167,4.128,0.371,5.616,0.612c1.487,0.24,2.604,0.492,3.349,0.756c0.743,0.264,1.188,0.492,1.332,0.684
		c0.19-0.529,0.144-1.249-0.145-2.16c-1.008-0.432-2.257-0.781-3.744-1.044c-1.488-0.265-3.072-0.457-4.752-0.576
		c-1.681-0.121-3.373-0.205-5.076-0.252c-1.704-0.048-3.275-0.072-4.716-0.072s-3.024,0.024-4.752,0.072
		c-1.728,0.047-3.433,0.131-5.112,0.252c-1.681,0.119-3.252,0.312-4.716,0.576c-1.465,0.263-2.676,0.612-3.636,1.044
		c-0.192,0.527-0.301,0.959-0.324,1.296c-0.025,0.335-0.012,0.623,0.036,0.864c0.144-0.192,0.6-0.42,1.368-0.684
		c0.768-0.264,1.896-0.516,3.384-0.756c1.487-0.241,3.359-0.444,5.616-0.612c2.256-0.169,4.968-0.252,8.136-0.252
		S34.469,51.851,36.725,52.02z M28.589,46.512h1.728c1.584,0,3.097,0,4.537,0c1.439,0,2.795,0.072,4.067,0.216
		c1.271,0.144,2.423,0.383,3.456,0.72c1.031,0.335,1.932,0.816,2.699,1.44c-0.432-0.528-0.672-0.972-0.719-1.332
		c-0.049-0.36-0.025-0.732,0.071-1.116c-1.825-0.913-3.913-1.44-6.264-1.584c-2.353-0.144-4.968-0.192-7.849-0.144h-1.728h-1.728
		c-2.833-0.048-5.437,0-7.813,0.144s-4.477,0.671-6.3,1.584c0.047,0.384,0.06,0.756,0.036,1.116
		c-0.024,0.36-0.276,0.803-0.756,1.332c1.584-1.2,3.672-1.908,6.264-2.124c2.592-0.216,5.447-0.301,8.568-0.252H28.589z
		 M24.701,16.848c0,1.537,0.287,3.288,0.863,5.256c0.576,1.969,1.152,3.864,1.729,5.688c0.24,0.72,0.468,1.417,0.684,2.088
		c0.217,0.673,0.42,1.321,0.612,1.944c0.144-0.623,0.324-1.271,0.54-1.944c0.216-0.671,0.443-1.368,0.684-2.088
		c0.672-1.824,1.26-3.719,1.764-5.688c0.505-1.968,0.757-3.719,0.757-5.256c0-0.576-0.048-1.104-0.144-1.584
		c-0.098-0.479-0.266-0.912-0.504-1.296c-0.576-0.815-1.609-1.224-3.097-1.224c-1.393,0-2.448,0.408-3.168,1.224
		C24.94,14.832,24.701,15.792,24.701,16.848z M27.797,22.32c-0.432-1.104-0.792-2.171-1.08-3.204
		c-0.288-1.031-0.359-1.932-0.216-2.7c0.144-0.768,0.792-1.152,1.944-1.152c1.199,0,1.871,0.384,2.016,1.152
		c0.145,0.768,0.072,1.668-0.217,2.7c-0.287,1.033-0.66,2.101-1.115,3.204c-0.457,1.105-0.684,1.993-0.684,2.664
		C28.445,24.313,28.229,23.425,27.797,22.32z M50.333,39.024c0.911-0.959,1.739-1.98,2.483-3.06s1.355-2.22,1.836-3.42
		c0.48-1.199,0.721-2.495,0.721-3.888c0-2.976-0.864-5.303-2.592-6.984c-1.729-1.68-4.08-2.52-7.057-2.52
		c-1.393,0-3.023,0.385-4.896,1.152c-1.872,0.769-3.661,2.005-5.364,3.708c-1.705,1.705-3.156,3.888-4.355,6.552
		c-1.201,2.664-1.825,5.868-1.873,9.612c4.416,0,8.016,0.169,10.801,0.504c2.783,0.336,4.848,1.201,6.191,2.592l1.44-1.512
		C48.533,40.896,49.42,39.985,50.333,39.024z M48.965,37.332c0.768-0.792,1.451-1.631,2.053-2.52c0.6-0.888,1.09-1.824,1.475-2.808
		c0.385-0.983,0.576-2.027,0.576-3.132c0-2.4-0.695-4.284-2.088-5.652c-1.393-1.368-3.312-2.052-5.76-2.052
		c-1.104,0-2.412,0.313-3.924,0.936c-1.512,0.625-2.952,1.62-4.32,2.988c-1.367,1.368-2.52,3.121-3.455,5.256
		c-0.937,2.136-1.404,4.741-1.404,7.812c3.6,0.048,6.383,0.288,8.352,0.72c1.968,0.432,3.672,1.057,5.112,1.872l1.151-1.152
		C47.453,38.88,48.196,38.124,48.965,37.332z"/>
</g>
<path d="M45.829,40.933c0,0-2.589-2.779-13.697-2.539c0,0-0.165-8.356,4.908-13.343c5.072-4.986,12.331-5.372,15.468,0
	C55.696,31.35,48.857,38.368,45.829,40.933z"/>
<path d="M11.298,40.933c0,0,2.589-2.779,13.698-2.539c0,0,0.164-8.356-4.909-13.343c-5.072-4.986-12.331-5.372-15.467,0
	C1.431,31.35,8.27,38.368,11.298,40.933z"/>
<path d="M28.58,24.782c0,0-1.688-5.12-1.891-6.637s0.031-2.902,1.891-2.902s1.973,1.402,1.822,2.87S28.58,24.782,28.58,24.782z"/>
<path d="M57.05,27.371c-1.086-8.076-6.825-10.634-13.185-9.917s-11.244,7.17-11.244,7.17s4.719-13.392-3.24-13.392V6.48h3.744V4.752
	h-3.744V0h-1.729v4.752h-3.527V6.48h3.527v4.752c0,0-7.697-0.441-3.023,13.392c0,0-7.108-9.061-16.058-7.072
	S-1.611,28.582,1.635,34.959s9.996,9.628,9.329,12.419c0,0-2.326,2.079-2.663,6.54s11.502,4.636,13.417,4.745
	s11.676,0.607,17.234-0.313c5.559-0.919,10.258-0.971,9.885-4.638c-0.372-3.667-1.615-4.971-2.535-6.048
	c0,0-0.754-1.199,1.105-3.091C49.267,42.682,58.136,35.447,57.05,27.371z M28.62,12.75c3.719,0,3.945,2.806,3.645,5.741
	S28.62,31.83,28.62,31.83s-3.374-10.24-3.78-13.275C24.433,15.52,24.901,12.75,28.62,12.75z M45.076,48.888
	c-1.059-0.751-2.128-1.421-4.906-1.981c-2.779-0.56-9.854-0.395-11.617-0.395s-8.308-0.061-11.499,0.399s-5.025,1.977-5.025,1.977
	c1.127-1.001,0.72-2.448,0.72-2.448s1.121-0.958,6.108-1.571c5.237-0.364,19.496,0,19.496,0c3.593,0.246,6.075,1.571,6.075,1.571
	C43.94,47.897,45.076,48.888,45.076,48.888z M10.949,43.272C7.256,40.145-1.084,31.585,2.805,23.904
	c3.825-6.552,12.677-6.081,18.863,0s5.985,16.271,5.985,16.271C14.106,39.883,10.949,43.272,10.949,43.272z M46.877,51.912
	c0.476,1.117,0.145,2.16,0.145,2.16s-2.62-2.304-18.482-2.304c-15.863,0-18.454,2.304-18.454,2.304
	c-0.223-0.786,0.288-2.16,0.288-2.16s2.653-1.898,18.166-1.898C44.051,50.014,46.877,51.912,46.877,51.912z M46.092,43.272
	c0,0-3.158-3.389-16.704-3.096c0,0-0.2-10.191,5.985-16.271s15.037-6.552,18.863,0C58.125,31.585,49.785,40.145,46.092,43.272z"/>
</svg>
