<?xml version="1.0" encoding="UTF-8" standalone="no"?>
<svg
   xmlns:dc="http://purl.org/dc/elements/1.1/"
   xmlns:cc="http://creativecommons.org/ns#"
   xmlns:rdf="http://www.w3.org/1999/02/22-rdf-syntax-ns#"
   xmlns:svg="http://www.w3.org/2000/svg"
   xmlns="http://www.w3.org/2000/svg"
   xmlns:sodipodi="http://sodipodi.sourceforge.net/DTD/sodipodi-0.dtd"
   xmlns:inkscape="http://www.inkscape.org/namespaces/inkscape"
   xml:space="preserve"
   enable-background="new 0 0 58.536 58.968"
   viewBox="0 0 58.461117 58.968"
   height="58.967999"
   width="58.461117"
   y="0px"
   x="0px"
   id="Layer_1"
   version="1.1"
   inkscape:version="0.91 r13725"
   sodipodi:docname="knight-b (copy 1).svg"><sodipodi:namedview
     pagecolor="#ffffff"
     bordercolor="#666666"
     borderopacity="1"
     objecttolerance="10"
     gridtolerance="10"
     guidetolerance="10"
     inkscape:pageopacity="0"
     inkscape:pageshadow="2"
     inkscape:window-width="1920"
     inkscape:window-height="1026"
     id="namedview8"
     showgrid="false"
     inkscape:zoom="4.0021708"
     inkscape:cx="1.8704065"
     inkscape:cy="29.483999"
     inkscape:window-x="0"
     inkscape:window-y="0"
     inkscape:window-maximized="1"
     inkscape:current-layer="Layer_1" /><metadata
     id="metadata17"><rdf:RDF><cc:Work
         rdf:about=""><dc:format>image/svg+xml</dc:format><dc:type
           rdf:resource="http://purl.org/dc/dcmitype/StillImage" /><dc:title></dc:title></cc:Work></rdf:RDF></metadata><defs
     id="defs15" /><path
     id="path7"
     d="m 30.019535,7.92 c 0,0 -0.788,-3.731 -4.032,-7.92 -3.912,4.292 -3.744,7.488 -3.744,7.488 l -2.159,0.36 c -2.086,-3.85 -7.128,-7.272 -7.128,-7.272 -0.959,1.894 -1.718,4.651 -1.116,6.444 0.602,1.793 0.262,3.329 0.262,3.329 -0.846,1.027 -3.5419996,4.849 -3.5559996,6.941 -0.014,2.092 -0.061,5.047 -2.862,8.63 -2.801,3.583 -5.15699996,6.979 -5.63599996,11.205 -0.479,4.226 2.63599996,7.972 7.19699996,9.445 4.5609996,1.473 7.1209996,-1.838 7.1209996,-1.838 4.768,-5.795 6.759,-8.039 10.422,-9.285 3.663,-1.246 5.52,-4.271 5.52,-4.271 0,0 -0.629,9.755 -7.339,13.767 -6.71,4.012 -5.909,14.025 -5.909,14.025 l 41.4,0 c 0.149,-53.514 -28.441,-51.048 -28.441,-51.048 z m -11.194,49.176 c 0,0 -0.005,-5.711 2.572,-8.487 2.577,-2.776 3.586,-2.468 5.09,-4.14 1.506,-1.672 6.152,-5.803 6.234,-22.437 l -1.8,0 c 0,0 0.723,9.516 -7.071,11.929 -7.793,2.414 -9.23,11.387 -14.2409996,11.254 0,0 0.235,-1.178 1.2789996,-2.53 1.044,-1.352 0.809,-2.87 0.809,-2.87 l -1.7999996,0 c 0,0 0.051,1.744 -0.853,2.693 -0.904,0.949 -1.163,2.492 -1.163,2.492 0,0 -4.903,-1.075 -6.01,-5.454 -1.10699996,-4.379 2.739,-9.148 4.282,-11.322 1.543,-2.174 4.1239996,-5.393 4.0349996,-8.392 0.244,-8.499 5.093,-6.907 3.647,-11.995 -0.443,-1.682 -0.387,-3.839 0.021,-4.526 0,0 3.494,2.764 4.68,5.184 0,0 -2.333,1.267 -3.24,3.24 l 1.512,0.936 c 0,0 1.325,-2.952 5.328,-3.312 0,0 0.171,2.074 0.504,3.024 l 1.728,-0.504 c 0,0 -1.603,-4.995 1.584,-9 0,0 4.526,5.013 1.44,9.504 l 1.512,0.936 c 0,0 1.334,-1.944 1.224,-3.672 0,0 26.22,-3.565 24.841,47.448 l -36.144,0 z"
     style="fill:#ffffff" /><path
     id="path9"
     d="m 16.849535,18.325 c 0,0 1.138,1.549 0.442,3.06 -0.696,1.511 -2.863,0.949 -2.386,-1.692 0,0 -1.224,1.46 -1.44,2.592 l -1.728,0 c 0,0 1.001,-5.691 6.984,-6.408 l 0,1.872 -1.872,0.576 z"
     style="fill:#ffffff" /><path
     id="path11"
     d="m 3.6735354,39.493 c -0.361,-0.335 -0.305,-1.208 0.679,-2.922 0.984,-1.714 2.222,-2.567 2.705,-2.118 0.483,0.449 0.078,1.451 -0.634,2.771 -0.712,1.32 -2.147,2.828 -2.75,2.269 z"
     style="fill:#ffffff" /></svg>