<svg xmlns="http://www.w3.org/2000/svg" viewBox="0 0 58.461117 58.968" height="59" width="59"><path d="M30 8l-4-8c-4 4-4 8-4 8h-2c-2-4-7-7-7-7-1 2-2 4-1 6v3l-3 7c0 2 0 5-3 9-3 3-6 7-6 11s3 8 7 10c5 1 7-2 7-2 5-6 7-8 11-10 4-1 5-4 5-4s0 10-7 14-6 14-6 14h42C58 5 30 8 30 8zM19 57s0-6 2-8l5-4c2-2 7-6 7-23h-2s1 10-7 12-9 11-14 11l1-2 1-3h-2l-1 3-1 2s-5-1-6-6c-1-4 3-9 4-11 2-2 4-5 4-8 0-9 5-7 4-12V3l4 5-3 4 2 1s1-3 5-4l1 3h2s-2-5 1-9c0 0 5 5 1 9l2 1 1-3s26-4 25 47H19z" fill="#000"/><path d="M17 18v3c0 2-3 1-2-1l-2 2h-1s1-5 7-6v2h-2zM4 40v-4l3-2c1 1 0 2-1 3 0 2-2 3-2 3z" fill="#000"/></svg>