<?xml version="1.0" encoding="utf-8"?>
<!-- Generator: Adobe Illustrator 16.0.0, SVG Export Plug-In . SVG Version: 6.00 Build 0)  -->
<!DOCTYPE svg PUBLIC "-//W3C//DTD SVG 1.1//EN" "http://www.w3.org/Graphics/SVG/1.1/DTD/svg11.dtd">
<svg version="1.1" id="Layer_1" xmlns="http://www.w3.org/2000/svg" xmlns:xlink="http://www.w3.org/1999/xlink" x="0px" y="0px"
	 width="58.465px" height="58.968px" viewBox="0 0 58.465 58.968" enable-background="new 0 0 58.465 58.968" xml:space="preserve">
<g>
	<path d="M25.992,0l0.576,0.792c0,0.048,0.168,0.288,0.504,0.72c0.335,0.432,0.695,0.984,1.08,1.656
		c0.384,0.673,0.768,1.417,1.152,2.232c0.384,0.817,0.623,1.656,0.72,2.52c4.464,0.144,8.447,1.321,11.952,3.528
		c3.503,2.208,6.479,5.448,8.928,9.72c2.448,4.273,4.32,9.552,5.616,15.84c1.296,6.289,1.944,13.608,1.944,21.96h-41.4
		c0-3.744,0.443-6.672,1.332-8.784c0.888-2.113,2.34-3.816,4.355-5.112c2.16-1.199,3.828-2.916,5.005-5.148
		c1.175-2.232,2.026-5.148,2.556-8.748c-1.104,1.584-2.293,2.7-3.564,3.348c-1.272,0.648-2.34,1.116-3.204,1.404l-1.079,0.504
		c-0.721,0.288-1.537,0.912-2.448,1.872c-0.912,0.96-1.8,1.944-2.664,2.952l-0.72,0.936L15.768,43.2
		c-0.913,1.104-1.813,1.991-2.7,2.664c-0.889,0.672-2.149,1.008-3.78,1.008c-0.913,0-1.908-0.205-2.988-0.612
		c-1.08-0.408-2.088-0.984-3.024-1.728c-0.936-0.744-1.717-1.62-2.34-2.628C0.312,40.896,0,39.769,0,38.52
		c0-2.495,0.443-4.56,1.332-6.192C2.22,30.697,3.215,29.16,4.32,27.72l0.504-0.504c0.191-0.288,0.479-0.72,0.864-1.296
		c0.384-0.576,0.78-1.188,1.188-1.836c0.407-0.648,0.756-1.32,1.044-2.016c0.288-0.695,0.432-1.332,0.432-1.908
		c0-1.968,0.216-3.528,0.648-4.68s1.032-2.255,1.8-3.312l0.432-0.648c0.24-0.288,0.468-0.576,0.684-0.864
		c0.216-0.288,0.324-0.551,0.324-0.792c0-0.576-0.012-0.996-0.036-1.26c-0.025-0.263-0.061-0.515-0.108-0.756
		c-0.097-0.24-0.18-0.516-0.252-0.828c-0.072-0.312-0.108-0.828-0.108-1.548c0-1.392,0.119-2.387,0.36-2.988
		c0.24-0.6,0.408-0.947,0.504-1.044l0.36-0.864l0.792,0.576c0.047,0.048,0.324,0.241,0.828,0.576
		c0.504,0.336,1.08,0.804,1.728,1.404c0.648,0.601,1.319,1.296,2.016,2.088c0.695,0.792,1.284,1.668,1.765,2.628
		c0.72-0.144,1.439-0.263,2.159-0.36c0.096-0.911,0.3-1.775,0.612-2.592c0.312-0.815,0.636-1.523,0.972-2.124
		c0.336-0.6,0.648-1.08,0.937-1.44s0.455-0.54,0.504-0.54L25.992,0z M5.832,34.74c-0.48,0.408-0.961,0.972-1.44,1.692
		c-0.48,0.72-0.792,1.38-0.936,1.98c-0.144,0.601-0.097,0.972,0.144,1.116c0.239,0.241,0.612,0.157,1.116-0.252
		c0.504-0.407,0.996-0.996,1.476-1.764c0.432-0.672,0.731-1.308,0.9-1.908c0.168-0.6,0.132-0.972-0.108-1.116
		C6.696,34.249,6.311,34.333,5.832,34.74z M8.676,45.288c0.216,0.047,0.54,0.023,0.972-0.072c0.096-0.576,0.335-1.104,0.72-1.584
		c0.288-0.479,0.576-1.008,0.864-1.584c0.288-0.576,0.432-1.319,0.432-2.232h-1.8c0,0.673-0.108,1.236-0.324,1.692
		c-0.216,0.457-0.444,0.876-0.684,1.26c-0.241,0.336-0.457,0.696-0.648,1.08C8.016,44.233,7.895,44.616,7.848,45
		C8.183,45.144,8.46,45.24,8.676,45.288z M17.496,18.072c0.24-0.095,0.624-0.191,1.152-0.288v-1.872
		c-1.008,0.241-1.885,0.516-2.628,0.828c-0.745,0.313-1.38,0.708-1.908,1.188c-0.529,0.48-0.997,1.08-1.404,1.8
		c-0.409,0.72-0.756,1.584-1.044,2.592h1.728c0.239-0.767,0.468-1.296,0.684-1.584c0.216-0.288,0.468-0.623,0.756-1.008
		c-0.048,0.097-0.072,0.264-0.072,0.504c0,1.344,0.479,2.016,1.44,2.016c0.335,0,0.624-0.18,0.864-0.54
		c0.239-0.36,0.36-0.852,0.36-1.476c0-0.959-0.216-1.584-0.648-1.872C17.015,18.264,17.255,18.169,17.496,18.072z M21.744,9.72
		c-1.296,0.144-2.568,0.408-3.815,0.792c-1.249,0.385-2.401,0.936-3.456,1.656l1.08,1.44c0.816-0.623,1.776-1.091,2.88-1.404
		c1.104-0.312,2.207-0.564,3.312-0.756V9.72z M30.024,11.376c2.736,0.144,5.184,0.864,7.344,2.16s4.056,3.024,5.688,5.184
		c1.631,2.16,3.012,4.68,4.14,7.56c1.127,2.88,2.04,5.976,2.736,9.288c0.695,3.312,1.212,6.757,1.548,10.332
		c0.335,3.575,0.527,7.164,0.576,10.764h3.096c0-3.744-0.216-7.477-0.647-11.196c-0.433-3.719-1.08-7.308-1.944-10.764
		s-1.969-6.684-3.313-9.684c-1.344-3-2.951-5.627-4.823-7.884c-1.872-2.256-3.996-4.043-6.372-5.364
		c-2.376-1.32-5.053-2.027-8.028-2.124V11.376z M33.048,30.096c0.959-2.352,1.439-4.992,1.439-7.92H32.76
		c0,1.825-0.169,3.396-0.504,4.716c-0.337,1.321-0.769,2.388-1.297,3.204H33.048z"/>
</g>
<path d="M30.024,7.92c0,0-0.788-3.731-4.032-7.92c-3.912,4.292-3.744,7.488-3.744,7.488l-2.159,0.36
	c-2.086-3.85-7.128-7.272-7.128-7.272c-0.959,1.894-1.718,4.651-1.116,6.444s0.262,3.329,0.262,3.329
	c-0.846,1.027-3.542,4.849-3.556,6.941s-0.061,5.047-2.862,8.63s-5.157,6.979-5.636,11.205s2.636,7.972,7.197,9.445
	s7.121-1.838,7.121-1.838c4.768-5.795,6.759-8.039,10.422-9.285s5.52-4.271,5.52-4.271s-0.629,9.755-7.339,13.767
	s-5.909,14.025-5.909,14.025h41.4C58.615,5.454,30.024,7.92,30.024,7.92z M6.35,37.258c-0.712,1.32-2.147,2.829-2.75,2.27
	c-0.361-0.335-0.305-1.208,0.679-2.922s2.222-2.567,2.705-2.118S7.062,35.938,6.35,37.258z M10.764,42.942
	c-1.095,1.636-1.116,2.274-1.116,2.274S9.027,45.594,7.848,45c0,0,0.025-0.853,1.103-2.387s0.913-2.797,0.913-2.797h1.8
	C11.664,39.816,11.859,41.306,10.764,42.942z M18.648,17.784l-1.872,0.576c0,0,1.138,1.549,0.442,3.06s-2.863,0.949-2.386-1.692
	c0,0-1.224,1.46-1.44,2.592h-1.728c0,0,1.001-5.691,6.984-6.408V17.784z M21.744,11.448c0,0-4.783,0.945-6.192,2.16l-1.08-1.44
	c0,0,2.898-1.897,7.271-2.448V11.448z M33.048,30.096h-2.089c0,0,1.898-4.064,1.801-7.92h1.728
	C34.488,22.176,34.549,27.295,33.048,30.096z M30.024,11.376V9.648c0,0,24.133-2.188,25.128,47.016h-3.096
	C52.056,56.664,52.818,12.443,30.024,11.376z"/>
</svg>
