<svg xmlns="http://www.w3.org/2000/svg" viewBox="0 0 58.461117 58.968" height="59" width="58.5"><path d="M30 8s-.8-3.8-4-8c-4 4.3-3.8 7.5-3.8 7.5l-2 .3C18 4 13 .6 13 .6c-1 2-1.8 4.6-1.2 6.4.6 1.8.3 3.3.3 3.3-.7 1-3.4 5-3.5 7 0 2 0 5-2.8 8.6C3 29.4.5 33 0 37c-.4 4.4 2.7 8 7.2 9.6 4.6 1.4 7.2-2 7.2-2 4.7-5.7 6.7-8 10.4-9.2 3.7-1.2 5.5-4.2 5.5-4.2S29.7 41 23 45s-6 14-6 14h41.5C58.5 5.5 30 8 30 8zM18.8 57s0-5.6 2.6-8.4c2.6-2.8 3.6-2.5 5-4 1.6-1.8 6.2-6 6.3-22.6H31s.6 9.5-7 12c-8 2.4-9.4 11.3-14.4 11.2 0 0 .2-1.2 1.3-2.5 1-1.4.7-3 .7-3H10s0 2-1 2.8c-1 1-1 2.5-1 2.5s-5-1-6-5.5c-1.2-4.3 2.6-9 4.2-11.3 1.5-2.2 4-5.4 4-8.4.2-8.5 5-7 3.6-12-.4-1.6-.4-3.8 0-4.5 0 0 3.6 2.8 4.7 5.2 0 0-2.3 1.3-3.2 3.2l1.5 1s1.3-3 5.3-3.3l.6 3 1.8-.5S22.8 7 26 3c0 0 4.5 5 1.4 9.4l1.5 1s1.2-2 1-3.8C30 9.6 56.4 6 55 57H18.8z" fill="#fff"/><path d="M16.8 18.3s1.2 1.6.5 3c-.7 1.6-3 1-2.4-1.6 0 0-1.3 1.5-1.5 2.6h-1.8s1-5.7 7-6.4v1.7l-2 .6zM3.7 39.5c-.4-.3-.3-1.2.7-3 1-1.6 2.2-2.5 2.7-2 .5.4 0 1.4-.6 2.7-.7 1.3-2 3-2.7 2.3z" fill="#fff"/></svg>