<?xml version="1.0" encoding="utf-8"?>
<!-- Generator: Adobe Illustrator 16.0.0, SVG Export Plug-In . SVG Version: 6.00 Build 0)  -->
<!DOCTYPE svg PUBLIC "-//W3C//DTD SVG 1.1//EN" "http://www.w3.org/Graphics/SVG/1.1/DTD/svg11.dtd">
<svg version="1.1" id="Layer_1" xmlns="http://www.w3.org/2000/svg" xmlns:xlink="http://www.w3.org/1999/xlink" x="0px" y="0px"
	 width="40.882px" height="53.526px" viewBox="0 0 40.882 53.526" enable-background="new 0 0 40.882 53.526" xml:space="preserve">
<path d="M14.206,4.098c1.728-4.035,6.77-5.34,10.303-2.784c3.686,2.665,3.492,7.948,0.1,10.74c4.016,1.115,7.709,4.117,8.436,8.403
	c0.779,4.588-2.029,8.528-5.914,10.677c6.801,1.784,13.752,7.014,13.752,14.688v7.704H0.057c0-2.796-0.141-5.628,0.021-8.42
	c0.425-7.348,7.237-12.25,13.804-13.972c-3.873-2.034-6.727-5.817-6.106-10.362c0.605-4.441,4.435-7.574,8.554-8.718
	C13.977,10.12,12.98,6.956,14.206,4.098C14.565,3.258,13.845,4.938,14.206,4.098z"/>
</svg>
