<?xml version="1.0" encoding="utf-8"?>
<!-- Generator: Adobe Illustrator 16.0.0, SVG Export Plug-In . SVG Version: 6.00 Build 0)  -->
<!DOCTYPE svg PUBLIC "-//W3C//DTD SVG 1.1//EN" "http://www.w3.org/Graphics/SVG/1.1/DTD/svg11.dtd">
<svg version="1.1" id="Layer_1" xmlns="http://www.w3.org/2000/svg" xmlns:xlink="http://www.w3.org/1999/xlink" x="0px" y="0px"
	 width="40.881px" height="53.526px" viewBox="0 0 40.881 53.526" enable-background="new 0 0 40.881 53.526" xml:space="preserve">
<path d="M14.206,4.098c1.728-4.035,6.771-5.34,10.304-2.784c3.686,2.665,3.492,7.948,0.1,10.74c4.016,1.115,7.708,4.117,8.436,8.403
	c0.778,4.588-2.029,8.528-5.915,10.677c6.802,1.784,13.752,7.014,13.752,14.688v7.704H0.057c0-2.796-0.141-5.628,0.021-8.42
	c0.425-7.348,7.237-12.25,13.804-13.972c-3.873-2.034-6.727-5.817-6.106-10.362c0.605-4.441,4.435-7.574,8.555-8.718
	C13.977,10.12,12.98,6.956,14.206,4.098C14.565,3.258,13.845,4.938,14.206,4.098z M1.641,51.941h37.584
	c0-2.956,0.418-6.335-0.461-9.193c-1.908-6.201-8.479-9.739-14.515-10.679c-0.023-0.494-0.047-0.988-0.071-1.482
	c0-0.017,2.815-1.25,3.112-1.441c1.967-1.26,3.596-3.203,4.075-5.529c1.165-5.659-4.083-9.688-9.133-10.412
	c-0.019-0.457-0.03-1.566-0.03-1.566s2.536-1.666,3.064-2.996c1.061-2.669-0.349-5.766-3.021-6.78
	c-2.65-1.006-5.724,0.45-6.646,3.129c-0.949,2.76,0.526,5.682,3.25,6.628c-0.023,0.518-0.047,1.035-0.07,1.553
	c0.001-0.02-3.192,0.84-3.526,0.983c-2.4,1.023-4.504,2.894-5.446,5.37c-1.956,5.139,2.306,9.647,6.955,11.03
	c-0.04,0.425-0.081,0.851-0.121,1.276c-0.046,0.485-1.957,0.612-2.467,0.749c-2.104,0.561-4.119,1.444-5.948,2.627
	c-3.668,2.372-6.584,6.157-6.584,10.685V51.941z"/>
<path d="M22.078,14.187"/>
</svg>
