<svg xmlns="http://www.w3.org/2000/svg" viewBox="0 0 62.999001 58.887412" height="58.9" width="63"><path d="M58.8 8a4.2 4.2 0 0 0-2 8L47 32.2V9.8a4.2 4.2 0 1 0-2 0L37 31.3l-4.5-23a4.2 4.2 0 1 0-5.2-4c0 2 1.4 3.5 3.2 4l-4.6 23L18.2 10A4.2 4.2 0 0 0 17 1.6a4.2 4.2 0 0 0-.8 8.2v22.3L6.2 16a4.2 4.2 0 0 0-2-8 4.2 4.2 0 0 0 0 8.4l7.8 27c.5 1.2 1.6 2.3 1.8 4.2.2 1.7-.2 2-1 3C12 52 11.4 53 11.4 54s-.3 2.3 4 3.5a89 89 0 0 0 32.2 0c3.7-1.4 3.8-1.8 3.8-3.5 0-1.6-1-3-1.7-3.8-.7-1-.6-1.5-.5-3 0-1.2 1.4-3.3 1.4-3.3l8-27.6a4.2 4.2 0 0 0 0-8.4zM4.3 14.7a2.4 2.4 0 1 1 0-5 2.4 2.4 0 0 1 0 5zm39-9a2.4 2.4 0 1 1 5 0 2.4 2.4 0 0 1-5 0zm1.8 8.6V35s-2.6-.6-6.8-.8l7-20zm-16-10a2.4 2.4 0 1 1 5 0 2.4 2.4 0 0 1-5 0zm2.5 8L36 34s-2.4-.3-8.7 0l4.2-21.8zm-6.4 22s-4.8.2-7 .8V14.7l7 19.6zM14.8 5.8a2.4 2.4 0 1 1 4.8 0 2.4 2.4 0 0 1-4.8 0zm-7 16l8.4 13.4s-2.3.6-4 1.5L8 22zm42 32.6S46.4 57 31.6 57c-14.7 0-18-2.4-18-2.4s2-2.7 18-2.7 18.3 2.6 18.3 2.6zm-.5-2.3s-5-2-17.7-2c-12.5 0-17.4 2-17.4 2L15 51c.5-.8.8-1.2.8-2 0 0 3.2-3.4 16-3.4C44 45.6 47.7 49 47.7 49s-.4.6.4 1.8a15 15 0 0 1 1 1.5zm-35-8.6s1-3 17.3-3 17.5 3 17.5 3-1.2 1.8-1.4 3c0 0-2.4-2.7-16-2.7-13.8 0-16 2.8-16 2.8s-.8-2.6-1.3-3zM49.8 42s-2.2-3.3-17.6-3.3c-17 0-18.4 3.3-18.4 3.3l-1-3.3s5-3 19.4-3c14.3 0 18.8 3 18.8 3l-1 3.3zm1.6-5s-.2-.4-4-1.6l8.4-14L51.3 37zm7.5-22.4a2.4 2.4 0 1 1 0-4.8 2.4 2.4 0 0 1 0 4.8z" fill="#fff"/></svg>