<?xml version="1.0" encoding="utf-8"?>
<!-- Generator: Adobe Illustrator 16.0.0, SVG Export Plug-In . SVG Version: 6.00 Build 0)  -->
<!DOCTYPE svg PUBLIC "-//W3C//DTD SVG 1.1//EN" "http://www.w3.org/Graphics/SVG/1.1/DTD/svg11.dtd">
<svg version="1.1" id="Layer_1" xmlns="http://www.w3.org/2000/svg" xmlns:xlink="http://www.w3.org/1999/xlink" x="0px" y="0px"
	 width="45.864px" height="54.288px" viewBox="0 0 45.864 54.288" enable-background="new 0 0 45.864 54.288" xml:space="preserve">
<g>
	<path d="M45.864,47.448v6.84H0v-6.84h4.392l-0.018-5.348c0,0,4.961-5.092,5.058-5.236V16.776c-0.097-0.096-4.152-4.08-5.112-5.04V0
		h8.424v5.04h5.4V0h9.504v5.04h5.4V0h8.496l-0.002,11.737c0,0-4.943,4.943-5.039,5.039v20.088c0.096,0.144,3.936,4.057,4.896,4.968
		v5.616H45.864z M38.952,11.736v-1.08H6.84v1.08l1.08,0.936h29.952L38.952,11.736z M6.84,45.504v2.016h32.112v-2.016H6.84z
		 M39.095,41.76l-1.151-1.008H7.992l-1.08,1.008v1.008h32.184V41.76z M11.304,16.848v2.088h23.112v-2.088H11.304z M11.304,34.848
		v2.016h23.112v-2.016H11.304z"/>
</g>
</svg>
